<?xml version="1.0" encoding="UTF-8" standalone="no"?>
<svg
   xmlns:dc="http://purl.org/dc/elements/1.1/"
   xmlns:cc="http://creativecommons.org/ns#"
   xmlns:rdf="http://www.w3.org/1999/02/22-rdf-syntax-ns#"
   xmlns:svg="http://www.w3.org/2000/svg"
   xmlns="http://www.w3.org/2000/svg"
   xmlns:xlink="http://www.w3.org/1999/xlink"
   xmlns:sodipodi="http://sodipodi.sourceforge.net/DTD/sodipodi-0.dtd"
   xmlns:inkscape="http://www.inkscape.org/namespaces/inkscape"
   version="1.1"
   width="248.3349"
   height="65.663803"
   id="svg4425"
   viewBox="0 0 248.3349 65.663803"
   sodipodi:docname="longlogo.svg"
   inkscape:version="0.92.4 (5da689c313, 2019-01-14)">
  <metadata
     id="metadata4429">
    <rdf:RDF>
      <cc:Work
         rdf:about="">
        <dc:format>image/svg+xml</dc:format>
        <dc:type
           rdf:resource="http://purl.org/dc/dcmitype/StillImage" />
        <dc:title></dc:title>
      </cc:Work>
    </rdf:RDF>
  </metadata>
  <sodipodi:namedview
     pagecolor="#ffffff"
     bordercolor="#666666"
     borderopacity="1"
     objecttolerance="10"
     gridtolerance="10"
     guidetolerance="10"
     inkscape:pageopacity="0"
     inkscape:pageshadow="2"
     inkscape:window-width="1920"
     inkscape:window-height="1030"
     id="namedview4427"
     showgrid="false"
     inkscape:zoom="2.25015"
     inkscape:cx="110.4822"
     inkscape:cy="119.10002"
     inkscape:window-x="960"
     inkscape:window-y="0"
     inkscape:window-maximized="1"
     inkscape:current-layer="svg4425"
     fit-margin-top="0"
     fit-margin-left="0"
     fit-margin-right="0"
     fit-margin-bottom="0" />
  <defs
     id="defs4214">
    <linearGradient
       id="grad49">
      <stop
         offset="0%"
         stop-color="#009ee0"
         stop-opacity="1.0000"
         id="stop4208" />
      <stop
         offset="100%"
         stop-color="#ffffff"
         stop-opacity="1.0000"
         id="stop4210" />
    </linearGradient>
    <linearGradient
       xlink:href="#grad49"
       id="grad50"
       x1="0"
       y1="0"
       x2="0"
       y2="1"
       gradientTransform="rotate(83,0.5,0.5)"
       gradientUnits="objectBoundingBox" />
  </defs>
  <defs
     id="defs4224">
    <linearGradient
       id="grad51">
      <stop
         offset="0%"
         stop-color="#009035"
         stop-opacity="1.0000"
         id="stop4218" />
      <stop
         offset="100%"
         stop-color="#ffffff"
         stop-opacity="1.0000"
         id="stop4220" />
    </linearGradient>
    <linearGradient
       xlink:href="#grad51"
       id="grad52"
       x1="0"
       y1="0"
       x2="0"
       y2="1"
       gradientTransform="rotate(178,0.5,0.5)"
       gradientUnits="objectBoundingBox" />
  </defs>
  <defs
     id="defs4234">
    <linearGradient
       id="grad53">
      <stop
         offset="0%"
         stop-color="#009035"
         stop-opacity="1.0000"
         id="stop4228" />
      <stop
         offset="100%"
         stop-color="#ffffff"
         stop-opacity="1.0000"
         id="stop4230" />
    </linearGradient>
    <linearGradient
       xlink:href="#grad53"
       id="grad54"
       x1="0"
       y1="0"
       x2="0"
       y2="1"
       gradientTransform="rotate(178,0.5,0.5)"
       gradientUnits="objectBoundingBox" />
  </defs>
  <defs
     id="defs4244">
    <linearGradient
       id="grad55">
      <stop
         offset="0%"
         stop-color="#e30016"
         stop-opacity="1.0000"
         id="stop4238" />
      <stop
         offset="100%"
         stop-color="#ffffff"
         stop-opacity="1.0000"
         id="stop4240" />
    </linearGradient>
    <linearGradient
       xlink:href="#grad55"
       id="grad56"
       x1="0"
       y1="0"
       x2="0"
       y2="1"
       gradientTransform="rotate(86,0.5,0.5)"
       gradientUnits="objectBoundingBox" />
  </defs>
  <defs
     id="defs4254">
    <linearGradient
       id="grad57">
      <stop
         offset="0%"
         stop-color="#e30016"
         stop-opacity="1.0000"
         id="stop4248" />
      <stop
         offset="100%"
         stop-color="#ffffff"
         stop-opacity="1.0000"
         id="stop4250" />
    </linearGradient>
    <linearGradient
       xlink:href="#grad57"
       id="grad58"
       x1="0"
       y1="0"
       x2="0"
       y2="1"
       gradientTransform="rotate(86,0.5,0.5)"
       gradientUnits="objectBoundingBox" />
  </defs>
  <defs
     id="defs4264">
    <linearGradient
       id="grad59">
      <stop
         offset="0%"
         stop-color="#00509e"
         stop-opacity="1.0000"
         id="stop4258" />
      <stop
         offset="100%"
         stop-color="#ffffff"
         stop-opacity="1.0000"
         id="stop4260" />
    </linearGradient>
    <linearGradient
       xlink:href="#grad59"
       id="grad60"
       x1="0"
       y1="0"
       x2="0"
       y2="1"
       gradientTransform="rotate(-96,0.5,0.5)"
       gradientUnits="objectBoundingBox" />
  </defs>
  <defs
     id="defs4274">
    <linearGradient
       id="grad61">
      <stop
         offset="0%"
         stop-color="#009ee0"
         stop-opacity="1.0000"
         id="stop4268" />
      <stop
         offset="100%"
         stop-color="#ffffff"
         stop-opacity="1.0000"
         id="stop4270" />
    </linearGradient>
    <linearGradient
       xlink:href="#grad61"
       id="grad62"
       x1="0"
       y1="0"
       x2="0"
       y2="1"
       gradientTransform="rotate(7,0.5,0.5)"
       gradientUnits="objectBoundingBox" />
  </defs>
  <defs
     id="defs4284">
    <linearGradient
       id="grad63">
      <stop
         offset="0%"
         stop-color="#00509e"
         stop-opacity="1.0000"
         id="stop4278" />
      <stop
         offset="100%"
         stop-color="#ffffff"
         stop-opacity="1.0000"
         id="stop4280" />
    </linearGradient>
    <linearGradient
       xlink:href="#grad63"
       id="grad64"
       x1="0"
       y1="0"
       x2="0"
       y2="1"
       gradientUnits="objectBoundingBox" />
  </defs>
  <g
     id="Layer1012"
     transform="translate(-36.7758,-283.4453)">
    <path
       d="m 45.7594,298.8913 c -0.5224,0.4824 -1.0806,0.8444 -1.675,1.0856 -0.5947,0.2416 -1.3085,0.362 -2.1418,0.362 -1.5001,0 -2.7363,-0.5031 -3.7083,-1.5094 -0.9723,-1.0063 -1.4585,-2.3258 -1.4585,-3.9586 v -0.1386 c 0,-1.6328 0.4944,-2.9549 1.4834,-3.9663 0.9887,-1.0116 2.2555,-1.5173 3.7999,-1.5173 1.4337,0 2.639,0.4107 3.6167,1.2322 l -1.1333,1.8022 c -0.8113,-0.6366 -1.6223,-0.9549 -2.4336,-0.9549 -0.8331,0 -1.5134,0.303 -2.0415,0.9087 -0.5278,0.6058 -0.7914,1.4273 -0.7914,2.4645 v 0.1542 c 0,1.0576 0.2608,1.8893 0.7832,2.4953 0.5222,0.6058 1.211,0.9088 2.0668,0.9088 0.8333,0 1.6611,-0.3288 2.4831,-0.9859 z m 2.5387,1.2937 v -10.7821 h 8.5502 v 10.7821 h -2.4001 v -8.7491 h -3.75 v 8.7491 z m 21.7888,-5.3141 c 0,1.6019 -0.4946,2.9163 -1.4834,3.9433 -0.989,1.0267 -2.2501,1.5403 -3.7834,1.5403 -1.5443,0 -2.8083,-0.5082 -3.7916,-1.525 -0.9833,-1.0165 -1.4751,-2.3258 -1.4751,-3.9277 v -0.1848 c 0,-1.6124 0.4943,-2.9293 1.4833,-3.951 0.9887,-1.0218 2.2556,-1.5326 3.7999,-1.5326 1.5335,0 2.7918,0.5082 3.7751,1.525 0.9834,1.0165 1.4752,2.3258 1.4752,3.9277 z m -2.4834,0.0309 v -0.1848 c 0,-1.0474 -0.2586,-1.8819 -0.775,-2.503 -0.5168,-0.6214 -1.186,-0.932 -2.0084,-0.932 -0.8334,0 -1.5029,0.3055 -2.0083,0.9164 -0.5054,0.6111 -0.7583,1.4403 -0.7583,2.4877 v 0.1848 c 0,1.0474 0.2582,1.8816 0.775,2.503 0.5165,0.6213 1.186,0.932 2.0081,0.932 0.8334,0 1.5029,-0.3056 2.0083,-0.9167 0.506,-0.6109 0.7586,-1.44 0.7586,-2.4874 z m 13.3387,-1.7714 c 0,1.2013 -0.4082,2.1308 -1.2252,2.7879 -0.8163,0.6574 -1.8637,0.9859 -3.1416,0.9859 h -1.3663 v 3.2808 H 72.809 v -10.7821 h 3.8665 c 1.311,0 2.3499,0.3311 3.1167,0.9935 0.7664,0.6622 1.15,1.5735 1.15,2.734 z m -2.4333,0.0462 c 0,-0.5751 -0.1667,-1.0117 -0.5003,-1.3093 -0.3331,-0.2979 -0.7999,-0.4467 -1.3997,-0.4467 h -1.3998 v 3.4812 h 1.4162 c 0.578,0 1.0363,-0.1568 1.3751,-0.47 0.339,-0.3132 0.5085,-0.7316 0.5085,-1.2552 z m 12.3557,-1.7098 h -2.9002 v 8.7182 h -2.4165 v -8.7182 h -2.9168 v -2.0639 h 8.2335 z m 11.2555,-2.0639 v 10.7821 h -2.3667 v -6.762 l -4.2165,6.762 h -2.2167 v -10.7821 h 2.3667 v 6.6693 l 4.1998,-6.6693 z m 11.789,7.8094 c 0,0.955 -0.3807,1.6892 -1.1421,2.2025 -0.7608,0.5134 -1.7861,0.7702 -3.0747,0.7702 h -4.4334 v -10.7821 h 4.3166 c 1.1557,0 2.0835,0.2463 2.7833,0.7392 0.6999,0.493 1.0503,1.1861 1.0503,2.0795 0,1.0678 -0.5278,1.8536 -1.5837,2.3568 0.678,0.2565 1.1948,0.5825 1.5502,0.9779 0.3555,0.3954 0.5335,0.9269 0.5335,1.5942 z m -2.8837,-4.621 c 0,-0.8113 -0.5442,-1.2169 -1.6333,-1.2169 h -1.7833 v 2.4491 h 1.6665 c 1.1667,0 1.7501,-0.4107 1.7501,-1.2322 z m 0.4836,4.3744 c 0,-0.8626 -0.6055,-1.2937 -1.8167,-1.2937 h -2.0835 v 2.5415 h 2.1498 c 0.5559,0 0.9862,-0.1054 1.292,-0.3158 0.3056,-0.2106 0.4584,-0.5213 0.4584,-0.932 z m 13.6057,3.2193 h -2.4001 v -4.39 h -3.85 v 4.39 h -2.4001 v -10.7821 h 2.4001 v 4.3282 h 3.85 v -4.3282 h 2.4001 z m 12.8886,0 h -2.4831 l -0.8669,-2.3414 h -3.9999 l -0.8669,2.3414 H 127.37 l 4.1666,-10.8439 h 2.2998 z m -4.0833,-4.3129 -1.2668,-3.5118 -1.2832,3.5118 z m 14.4221,-6.4692 v 10.7821 h -2.4165 v -3.5427 h -1.5168 l -2.1501,3.5427 h -2.7499 l 2.4667,-4.0048 c -1.4445,-0.5751 -2.1665,-1.6585 -2.1665,-3.2502 0,-1.0576 0.3384,-1.8893 1.0165,-2.4953 0.6777,-0.6058 1.6112,-0.9343 2.8,-0.9856 0.7334,-0.0309 1.4721,-0.0462 2.2167,-0.0462 z m -4.2667,5.2679 h 1.8502 v -3.2349 h -0.4499 c -0.3889,0 -0.6809,0.003 -0.8753,0.008 -0.1945,0.005 -0.4442,0.023 -0.7498,0.0539 -0.3056,0.0306 -0.5335,0.0796 -0.6834,0.1462 -0.15,0.0667 -0.3081,0.1593 -0.4751,0.2773 -0.1667,0.1182 -0.2835,0.2746 -0.3501,0.4697 -0.0663,0.1953 -0.0998,0.4263 -0.0998,0.6933 0,0.5032 0.1636,0.8932 0.4916,1.1704 0.3279,0.2776 0.7752,0.4162 1.3416,0.4162 z m 29.8891,-5.2679 v 10.7821 h -13.9167 v -10.7821 h 2.4001 v 8.7488 h 3.35 v -8.7488 h 2.4001 v 8.7488 h 3.3664 v -8.7488 z m 12.3726,10.7821 h -2.8502 l -2.8998,-4.4362 -1.0834,1.2631 v 3.1731 h -2.4001 v -10.7821 h 2.4001 v 4.6516 l 3.7998,-4.6516 h 2.8667 l -3.9169,4.5592 z m 12.2052,-5.3141 c 0,1.6019 -0.4944,2.9163 -1.4834,3.9433 -0.9887,1.0267 -2.2499,1.5403 -3.7834,1.5403 -1.5443,0 -2.8083,-0.5082 -3.7916,-1.525 -0.9834,-1.0165 -1.4749,-2.3258 -1.4749,-3.9277 v -0.1848 c 0,-1.6124 0.4944,-2.9293 1.4834,-3.951 0.9887,-1.0218 2.2555,-1.5326 3.7998,-1.5326 1.5336,0 2.7919,0.5082 3.7752,1.525 0.9833,1.0165 1.4749,2.3258 1.4749,3.9277 z m -2.4832,0.0309 v -0.1848 c 0,-1.0474 -0.2585,-1.8819 -0.775,-2.503 -0.517,-0.6214 -1.1863,-0.932 -2.0086,-0.932 -0.8331,0 -1.5029,0.3055 -2.0084,0.9164 -0.5054,0.6111 -0.7582,1.4403 -0.7582,2.4877 v 0.1848 c 0,1.0474 0.2585,1.8816 0.7753,2.503 0.5164,0.6213 1.186,0.932 2.008,0.932 0.8334,0 1.5029,-0.3056 2.0084,-0.9167 0.5057,-0.6109 0.7585,-1.44 0.7585,-2.4874 z m 4.6721,3.4194 c 0.2554,0 0.4663,-0.036 0.6332,-0.1077 0.1664,-0.072 0.3334,-0.2364 0.5001,-0.4929 0.1664,-0.2569 0.297,-0.6214 0.3914,-1.0936 0.0947,-0.4726 0.1695,-1.1194 0.2251,-1.9409 0.0556,-0.8215 0.0833,-1.8278 0.0833,-3.0189 v -2.2643 h 7.3503 v 10.7821 h -2.4001 v -8.7491 h -2.6836 v 1.2478 c 0,2.0639 -0.1193,3.6479 -0.3583,4.7517 -0.2389,1.1041 -0.5969,1.8561 -1.0749,2.2567 -0.4779,0.4005 -1.1554,0.6006 -2.0333,0.6006 -0.3223,0 -0.75,-0.0462 -1.2832,-0.1386 l 0.25,-1.8791 c 0.1108,0.0309 0.2444,0.0462 0.4,0.0462 z m 22.0719,1.8638 H 220.32 l -0.8668,-2.3414 h -4 l -0.8668,2.3414 h -2.4166 l 4.1667,-10.8439 h 2.3 z m -4.0833,-4.3129 -1.2668,-3.5118 -1.2832,3.5118 z m -171.4107,15.715 c 0,1.6018 -0.4944,2.9163 -1.4831,3.9433 -0.989,1.0267 -2.2501,1.5403 -3.7834,1.5403 -1.5443,0 -2.8083,-0.5082 -3.7916,-1.525 -0.9836,-1.0165 -1.4752,-2.3259 -1.4752,-3.9277 v -0.1848 c 0,-1.6124 0.4944,-2.9294 1.4834,-3.951 0.9887,-1.0219 2.2555,-1.5327 3.7999,-1.5327 1.5335,0 2.7918,0.5083 3.7751,1.5251 0.9834,1.0165 1.4749,2.3258 1.4749,3.9277 z m -2.4831,0.0309 v -0.1848 c 0,-1.0474 -0.2586,-1.882 -0.775,-2.503 -0.5168,-0.6214 -1.1861,-0.9321 -2.0084,-0.9321 -0.8334,0 -1.5029,0.3056 -2.0086,0.9165 -0.5054,0.6111 -0.758,1.4403 -0.758,2.4877 v 0.1848 c 0,1.0474 0.2582,1.8816 0.775,2.503 0.5165,0.6213 1.186,0.932 2.0081,0.932 0.8333,0 1.5029,-0.3056 2.0083,-0.9167 0.506,-0.6109 0.7586,-1.44 0.7586,-2.4874 z m 4.672,3.4194 c 0.2554,0 0.4663,-0.036 0.6333,-0.1077 0.1667,-0.072 0.3333,-0.2364 0.5,-0.4929 0.1664,-0.2569 0.2971,-0.6214 0.3918,-1.0937 0.0943,-0.4725 0.1692,-1.1194 0.2247,-1.9408 0.0559,-0.8215 0.0834,-1.8278 0.0834,-3.0189 v -2.2643 h 7.3502 v 10.7821 h -2.4001 v -8.7491 h -2.6835 v 1.2478 c 0,2.0639 -0.1194,3.6479 -0.3583,4.7517 -0.2387,1.1041 -0.597,1.8561 -1.0749,2.2567 -0.478,0.4005 -1.1554,0.6006 -2.0333,0.6006 -0.3223,0 -0.7498,-0.0462 -1.2833,-0.1386 l 0.25,-1.8791 c 0.1109,0.0309 0.2444,0.0462 0.4,0.0462 z m 21.1221,-8.9183 v 10.7821 h -2.3667 v -6.7621 l -4.2168,6.7621 h -2.2167 v -10.7821 h 2.3667 v 6.6693 l 4.2001,-6.6693 z m 13.3722,10.7821 h -2.3667 v -6.8854 l -2.7502,4.4516 h -0.0499 l -2.7334,-4.4054 v 6.8392 h -2.3332 v -10.7821 h 2.533 l 2.5668,4.3744 2.5835,-4.3744 h 2.5501 z m 3.122,0 v -10.7821 h 8.5502 v 10.7821 h -2.4001 v -8.7491 h -3.75 v 8.7491 z m 20.4888,-10.7821 v 10.7821 h -2.3666 v -6.7621 l -4.2168,6.7621 H 98.803 v -10.7821 h 2.3666 v 6.6693 l 4.2001,-6.6693 z m 11.9387,0 v 10.7821 h -2.3666 v -6.7621 l -4.2168,6.7621 h -2.2167 v -10.7821 h 2.3666 v 6.6693 l 4.2001,-6.6693 z m -4.3333,-0.6625 c -0.7112,0 -1.2917,-0.1874 -1.7419,-0.5621 -0.4498,-0.3748 -0.7251,-0.9165 -0.8249,-1.6251 l 1.3666,-0.231 c 0.167,0.657 0.5669,0.9859 1.2002,0.9859 0.6112,0 1.0055,-0.3289 1.1835,-0.9859 l 1.3498,0.231 c -0.1,0.7086 -0.3722,1.2503 -0.8169,1.6251 -0.4445,0.3747 -1.0165,0.5621 -1.7164,0.5621 z m 16.022,10.1509 c -0.5222,0.4824 -1.0806,0.8444 -1.675,1.0856 -0.5947,0.2415 -1.3082,0.362 -2.1416,0.362 -1.5004,0 -2.7363,-0.5031 -3.7083,-1.5094 -0.9722,-1.0063 -1.4584,-2.3259 -1.4584,-3.9586 v -0.1386 c 0,-1.6328 0.4944,-2.9549 1.4831,-3.9663 0.989,-1.0116 2.2558,-1.5173 3.8001,-1.5173 1.4335,0 2.6391,0.4107 3.6167,1.2322 l -1.1332,1.8022 c -0.8113,-0.6366 -1.6223,-0.955 -2.4336,-0.955 -0.8334,0 -1.5137,0.3031 -2.0415,0.9088 -0.5278,0.6058 -0.7917,1.4273 -0.7917,2.4645 v 0.1542 c 0,1.0576 0.2611,1.8893 0.7835,2.4953 0.5221,0.6058 1.2109,0.9088 2.0667,0.9088 0.8334,0 1.6611,-0.3288 2.4832,-0.9859 z m 11.7723,1.2937 h -2.85 l -2.9001,-4.4362 -1.0834,1.2631 v 3.1731 h -2.4001 v -10.7821 h 2.4001 v 4.6516 l 3.8001,-4.6516 h 2.8667 l -3.9169,4.5592 z m 12.2054,-5.3141 c 0,1.6018 -0.4947,2.9163 -1.4834,3.9433 -0.989,1.0267 -2.2501,1.5403 -3.7834,1.5403 -1.5443,0 -2.8083,-0.5082 -3.7916,-1.525 -0.9833,-1.0165 -1.4752,-2.3259 -1.4752,-3.9277 v -0.1848 c 0,-1.6124 0.4947,-2.9294 1.4834,-3.951 0.989,-1.0219 2.2555,-1.5327 3.7999,-1.5327 1.5338,0 2.7918,0.5083 3.7751,1.5251 0.9834,1.0165 1.4752,2.3258 1.4752,3.9277 z m -2.4834,0.0309 v -0.1848 c 0,-1.0474 -0.2586,-1.882 -0.775,-2.503 -0.5168,-0.6214 -1.1861,-0.9321 -2.0084,-0.9321 -0.8334,0 -1.5029,0.3056 -2.0083,0.9165 -0.5054,0.6111 -0.7583,1.4403 -0.7583,2.4877 v 0.1848 c 0,1.0474 0.2582,1.8816 0.775,2.503 0.5165,0.6213 1.1863,0.932 2.0081,0.932 0.8333,0 1.5029,-0.3056 2.0086,-0.9167 0.5057,-0.6109 0.7583,-1.44 0.7583,-2.4874 z m 7.6056,-3.4659 v 8.7491 h -2.4001 v -10.7821 h 6.95 v 2.033 z m 16.9889,3.435 c 0,1.6018 -0.4947,2.9163 -1.4834,3.9433 -0.989,1.0267 -2.2501,1.5403 -3.7834,1.5403 -1.5443,0 -2.8083,-0.5082 -3.7916,-1.525 -0.9834,-1.0165 -1.4752,-2.3259 -1.4752,-3.9277 v -0.1848 c 0,-1.6124 0.4947,-2.9294 1.4834,-3.951 0.989,-1.0219 2.2555,-1.5327 3.7998,-1.5327 1.5339,0 2.7919,0.5083 3.7752,1.5251 0.9834,1.0165 1.4752,2.3258 1.4752,3.9277 z m -2.4835,0.0309 v -0.1848 c 0,-1.0474 -0.2585,-1.882 -0.7749,-2.503 -0.5168,-0.6214 -1.1861,-0.9321 -2.0084,-0.9321 -0.8334,0 -1.5029,0.3056 -2.0083,0.9165 -0.5055,0.6111 -0.7583,1.4403 -0.7583,2.4877 v 0.1848 c 0,1.0474 0.2582,1.8816 0.775,2.503 0.5165,0.6213 1.1863,0.932 2.008,0.932 0.8334,0 1.503,-0.3056 2.0087,-0.9167 0.5057,-0.6109 0.7582,-1.44 0.7582,-2.4874 z m 17.6222,-1.7714 c 0,1.2013 -0.4082,2.1308 -1.2251,2.7879 -0.8164,0.6573 -1.8638,0.9859 -3.1417,0.9859 h -1.3666 v 3.2808 h -2.4001 v -10.7821 h 3.8668 c 1.311,0 2.3499,0.331 3.1167,0.9935 0.7665,0.6622 1.15,1.5735 1.15,2.734 z m -2.4333,0.0462 c 0,-0.5751 -0.1669,-1.0117 -0.5003,-1.3093 -0.3331,-0.2979 -0.7999,-0.4467 -1.3997,-0.4467 h -1.4001 v 3.4812 h 1.4165 c 0.578,0 1.0361,-0.1568 1.3751,-0.47 0.339,-0.3132 0.5085,-0.7316 0.5085,-1.2552 z m 12.3891,7.0084 h -7.5668 v -10.7821 h 7.4999 v 2.0023 h -5.1168 v 2.3568 h 4.5003 v 2.0024 h -4.5003 v 2.4182 h 5.1837 z m 6.1056,0.1539 c -1.6223,0 -3.0226,-0.4464 -4.2004,-1.3399 l 0.9502,-1.679 c 0.8555,0.6469 1.7668,0.9703 2.7331,0.9703 1.4003,0 2.1002,-0.4158 2.1002,-1.2475 0,-0.4519 -0.1916,-0.7985 -0.5751,-1.0398 -0.383,-0.2412 -0.9136,-0.3619 -1.5914,-0.3619 h -0.9669 v -1.8485 h 0.9335 c 0.5666,0 1.0474,-0.1335 1.4417,-0.4003 0.3945,-0.267 0.5918,-0.5904 0.5918,-0.9705 0,-0.3799 -0.1698,-0.6676 -0.5085,-0.8626 -0.339,-0.1951 -0.7917,-0.2926 -1.3584,-0.2926 -0.911,0 -1.7334,0.3133 -2.4664,0.9394 l -0.9505,-1.5865 c 0.5225,-0.4621 1.0945,-0.8034 1.717,-1.0242 0.6222,-0.2208 1.4054,-0.3311 2.3499,-0.3311 1.0554,0 1.9168,0.2642 2.5832,0.7932 0.6667,0.5289 1.0004,1.2092 1.0004,2.0409 0,1.15 -0.6055,1.9715 -1.8168,2.4645 1.3666,0.4314 2.0501,1.2889 2.0501,2.5724 0,0.955 -0.3697,1.7277 -1.1087,2.3182 -0.7387,0.5904 -1.7081,0.8855 -2.908,0.8855 z m 14.2387,-0.1539 h -7.5668 v -10.7821 h 7.4999 v 2.0023 h -5.1166 v 2.3568 h 4.5 v 2.0024 h -4.5 v 2.4182 h 5.1835 z m 10.8388,-7.0546 c 0,1.2013 -0.4082,2.1308 -1.2251,2.7879 -0.8164,0.6573 -1.8638,0.9859 -3.1417,0.9859 h -1.3663 v 3.2808 h -2.4001 v -10.7821 h 3.8665 c 1.3113,0 2.3499,0.331 3.1167,0.9935 0.7665,0.6622 1.15,1.5735 1.15,2.734 z m -2.4332,0.0462 c 0,-0.5751 -0.1667,-1.0117 -0.5004,-1.3093 -0.333,-0.2979 -0.7999,-0.4467 -1.3997,-0.4467 h -1.3998 v 3.4812 h 1.4162 c 0.578,0 1.0364,-0.1568 1.3751,-0.47 0.339,-0.3132 0.5086,-0.7316 0.5086,-1.2552 z m 13.4725,4.0357 c 0,0.955 -0.3807,1.6892 -1.1421,2.2025 -0.7608,0.5134 -1.7858,0.7702 -3.0748,0.7702 h -4.4333 v -10.7821 h 4.3168 c 1.1554,0 2.0832,0.2463 2.7831,0.7392 0.6999,0.493 1.0502,1.186 1.0502,2.0795 0,1.0678 -0.5278,1.8536 -1.5837,2.3568 0.6781,0.2565 1.1948,0.5825 1.5503,0.9779 0.3554,0.3954 0.5335,0.9269 0.5335,1.5942 z m -2.8837,-4.621 c 0,-0.8113 -0.5443,-1.2169 -1.6331,-1.2169 h -1.7832 v 2.4491 h 1.6662 c 1.1667,0 1.7501,-0.4108 1.7501,-1.2322 z m 0.4836,4.3744 c 0,-0.8626 -0.6055,-1.2937 -1.8168,-1.2937 h -2.0831 v 2.5415 h 2.1498 c 0.5555,0 0.9858,-0.1054 1.2917,-0.3158 0.3056,-0.2106 0.4584,-0.5213 0.4584,-0.932 z m 14.7055,3.2193 h -2.4831 l -0.8668,-2.3414 h -4 l -0.8668,2.3414 h -2.4166 l 4.1667,-10.8439 h 2.2997 z m -4.0833,-4.3129 -1.2668,-3.5119 -1.2832,3.5119 z"
       style="fill:#005da9;fill-rule:evenodd"
       id="path4336"
       inkscape:connector-curvature="0" />
    <path
       d="M 243.2685,325.7321 H 36.9551 v 23.3172 h 205.5663 c -2.7462,-1.9826 -4.4216,-4.993 -5.088,-8.8985 l -0.0321,-0.1857 v -0.1868 c 0,-5.0062 2.6225,-10.1539 5.8672,-14.0462 z"
       style="fill:#e30016;fill-rule:evenodd"
       id="path4338"
       inkscape:connector-curvature="0" />
    <defs
       id="defs4346">
      <linearGradient
         id="grad65">
        <stop
           offset="0%"
           stop-color="#009ee0"
           stop-opacity="1.0000"
           id="stop4340" />
        <stop
           offset="100%"
           stop-color="#ffffff"
           stop-opacity="1.0000"
           id="stop4342" />
      </linearGradient>
      <linearGradient
         xlink:href="#grad65"
         id="grad66"
         x1="187.80342"
         y1="413.94553"
         x2="187.80342"
         y2="437.06741"
         gradientTransform="scale(1.3169712,0.75931802)"
         gradientUnits="userSpaceOnUse" />
    </defs>
    <path
       d="m 277.4737,319.2488 c 0.345,-1.6337 0.4009,-3.2998 0.1681,-4.9325 -0.313,0.515 -0.6513,1.0084 -1.0123,1.479 -1.8385,3.4161 -4.8735,6.1801 -8.7188,7.6192 l 0.1292,1.8323 -10.7357,-6.6267 -2.3082,0.9289 h 1e-4 c -2.9354,1.3126 -5.507,3.0837 -7.6644,5.0988 2.3347,3.675 6.3021,6.2595 10.9553,7.0051 1.0671,0.1709 2.1303,0.2397 3.1781,0.2156 0.0592,-1.2181 0.5774,-2.3161 1.3853,-3.1241 0.8595,-0.8593 2.047,-1.3911 3.3584,-1.3911 1.3113,0 2.499,0.5318 3.3584,1.3911 0.1915,0.1918 0.367,0.3999 0.5239,0.6219 3.6995,-2.2314 6.4722,-5.8047 7.3826,-10.1175 z"
       style="fill:url(#grad66)"
       id="path4348"
       inkscape:connector-curvature="0" />
    <defs
       id="defs4356">
      <linearGradient
         id="grad67">
        <stop
           offset="0%"
           stop-color="#009035"
           stop-opacity="1.0000"
           id="stop4350" />
        <stop
           offset="100%"
           stop-color="#ffffff"
           stop-opacity="1.0000"
           id="stop4352" />
      </linearGradient>
      <linearGradient
         xlink:href="#grad67"
         id="grad68"
         x1="408.35001"
         y1="188.26791"
         x2="408.35001"
         y2="209.36743"
         gradientTransform="scale(0.65113332,1.5357838)"
         gradientUnits="userSpaceOnUse" />
    </defs>
    <path
       d="m 271.2955,290.4964 c -1.5796,-0.7596 -3.2701,-1.2179 -4.9969,-1.3576 0.2635,0.2509 0.5189,0.5109 0.7655,0.7794 3.2488,2.6273 5.4838,6.4687 6.0043,10.8574 l 1.8107,0.3101 -8.9888,8.8526 1.6658,11.6048 c 4.9158,-0.9699 9.1334,-4.4939 11.227,-9.461 0.3508,-0.832 0.6311,-1.6783 0.8458,-2.5313 -0.7569,-0.2295 -1.4338,-0.6426 -1.9788,-1.1876 -0.8595,-0.8594 -1.3911,-2.0467 -1.3911,-3.3582 0,-1.3115 0.5316,-2.4988 1.3911,-3.3582 0.5129,-0.5129 1.1426,-0.9091 1.8459,-1.1452 -1.223,-4.3065 -4.0905,-8.0296 -8.2005,-10.0052 z"
       style="fill:url(#grad68)"
       id="path4358"
       inkscape:connector-curvature="0" />
    <defs
       id="defs4366">
      <linearGradient
         id="grad69">
        <stop
           offset="0%"
           stop-color="#009035"
           stop-opacity="1.0000"
           id="stop4360" />
        <stop
           offset="100%"
           stop-color="#ffffff"
           stop-opacity="1.0000"
           id="stop4362" />
      </linearGradient>
      <linearGradient
         xlink:href="#grad69"
         id="grad70"
         x1="277.4967"
         y1="301.19791"
         x2="277.4967"
         y2="308.81189"
         gradientUnits="userSpaceOnUse" />
    </defs>
    <path
       d="m 281.3036,301.1979 c 2.1026,0 3.8071,1.7045 3.8071,3.8071 0,2.1026 -1.7045,3.8069 -3.8071,3.8069 -2.1026,0 -3.8069,-1.7043 -3.8069,-3.8069 0,-2.1026 1.7043,-3.8071 3.8069,-3.8071 z"
       style="fill:url(#grad70)"
       id="path4368"
       inkscape:connector-curvature="0" />
    <defs
       id="defs4376">
      <linearGradient
         id="grad71">
        <stop
           offset="0%"
           stop-color="#e30016"
           stop-opacity="1.0000"
           id="stop4370" />
        <stop
           offset="100%"
           stop-color="#ffffff"
           stop-opacity="1.0000"
           id="stop4372" />
      </linearGradient>
      <linearGradient
         xlink:href="#grad71"
         id="grad72"
         x1="178.02083"
         y1="383.7041"
         x2="178.02083"
         y2="407.01413"
         gradientTransform="scale(1.3471066,0.74233173)"
         gradientUnits="userSpaceOnUse" />
    </defs>
    <path
       d="m 251.6515,300.8456 4.93,-11.6425 4.2202,9.9666 10.4123,1.4172 c 0.0101,-2.5152 -0.579,-4.9118 -1.6407,-7.0424 -1.2626,-2.5343 -3.3073,-4.793 -5.699,-6.2999 -1.991,-1.2538 -4.2928,-2.0773 -6.7851,-2.3285 -2.2942,-0.2313 -4.5229,0.0437 -6.575,0.7343 0.2124,0.539 0.3293,1.1262 0.3293,1.7407 0,1.3116 -0.5318,2.4991 -1.3911,3.3585 -0.8595,0.8595 -2.0469,1.3912 -3.3584,1.3912 -1.1689,0 -2.2393,-0.4225 -3.0667,-1.1228 -1.7038,2.2307 -2.8315,4.9457 -3.1338,7.9435 -0.1087,1.0778 -0.1057,2.1407 -4e-4,3.178 z"
       style="fill:url(#grad72)"
       id="path4378"
       inkscape:connector-curvature="0" />
    <defs
       id="defs4386">
      <linearGradient
         id="grad73">
        <stop
           offset="0%"
           stop-color="#e30016"
           stop-opacity="1.0000"
           id="stop4380" />
        <stop
           offset="100%"
           stop-color="#ffffff"
           stop-opacity="1.0000"
           id="stop4382" />
      </linearGradient>
      <linearGradient
         xlink:href="#grad73"
         id="grad74"
         x1="242.2003"
         y1="283.44531"
         x2="242.2003"
         y2="291.0592"
         gradientUnits="userSpaceOnUse" />
    </defs>
    <path
       d="m 246.0073,283.4453 c 2.1024,0 3.8069,1.7043 3.8069,3.8069 0,2.1027 -1.7045,3.807 -3.8069,3.807 -2.1026,0 -3.807,-1.7043 -3.807,-3.807 0,-2.1026 1.7044,-3.8069 3.807,-3.8069 z"
       style="fill:url(#grad74)"
       id="path4388"
       inkscape:connector-curvature="0" />
    <defs
       id="defs4396">
      <linearGradient
         id="grad75">
        <stop
           offset="0%"
           stop-color="#00509e"
           stop-opacity="1.0000"
           id="stop4390" />
        <stop
           offset="100%"
           stop-color="#ffffff"
           stop-opacity="1.0000"
           id="stop4392" />
      </linearGradient>
      <linearGradient
         xlink:href="#grad75"
         id="grad76"
         x1="130.93372"
         y1="647.53369"
         x2="130.93372"
         y2="666.04199"
         gradientTransform="scale(1.9078333,0.5241548)"
         gradientUnits="userSpaceOnUse" />
    </defs>
    <path
       d="m 275.7059,349.1089 c 5.264,-0.8703 9.268,-4.8654 9.4045,-9.701 h -35.3107 c 0.3121,5.3332 4.2127,8.7774 10.7371,9.6967 l 0.0256,0.004 0.002,3e-4 0.002,2e-4 h 1e-4 z"
       style="fill:url(#grad76)"
       id="path4398"
       inkscape:connector-curvature="0" />
    <defs
       id="defs4406">
      <linearGradient
         id="grad77">
        <stop
           offset="0%"
           stop-color="#009ee0"
           stop-opacity="1.0000"
           id="stop4400" />
        <stop
           offset="100%"
           stop-color="#ffffff"
           stop-opacity="1.0000"
           id="stop4402" />
      </linearGradient>
      <linearGradient
         xlink:href="#grad77"
         id="grad78"
         x1="262.5061"
         y1="328.56519"
         x2="262.5061"
         y2="336.17911"
         gradientUnits="userSpaceOnUse" />
    </defs>
    <path
       d="m 266.3131,328.5652 c 2.1026,0 3.8069,1.7043 3.8069,3.8069 0,2.1026 -1.7043,3.807 -3.8069,3.807 -2.1026,0 -3.807,-1.7044 -3.807,-3.807 0,-2.1026 1.7044,-3.8069 3.807,-3.8069 z"
       style="fill:url(#grad78)"
       id="path4408"
       inkscape:connector-curvature="0" />
    <defs
       id="defs4416">
      <linearGradient
         id="grad79">
        <stop
           offset="0%"
           stop-color="#00509e"
           stop-opacity="1.0000"
           id="stop4410" />
        <stop
           offset="100%"
           stop-color="#ffffff"
           stop-opacity="1.0000"
           id="stop4412" />
      </linearGradient>
      <linearGradient
         xlink:href="#grad79"
         id="grad80"
         x1="253.08331"
         y1="308.39297"
         x2="253.08331"
         y2="330.526"
         gradientUnits="userSpaceOnUse"
         gradientTransform="scale(0.94677045,1.0562222)" />
    </defs>
    <path
       d="m 249.7997,328.9911 c -1.0575,-0.4906 -2.4533,-1.73 -3.5674,-3.2596 l 1e-4,3e-4 c -4.2568,4.4336 -6.6206,9.7929 -6.6206,14.0462 0.9689,5.678 4.1412,8.3223 8.4453,9.3309 l 1.7426,-0.001 10.767,0.001 c -0.002,-2e-4 -0.003,-3e-4 -0.004,-6e-4 -6.5399,-0.9139 -10.4502,-4.3601 -10.7628,-9.7004 z"
       style="fill:url(#grad80)"
       id="path4418"
       inkscape:connector-curvature="0" />
    <path
       d="m 48.6533,339.4443 c 0,0.938 -0.3169,1.6591 -0.9507,2.1634 -0.6339,0.5043 -1.4874,0.7566 -2.5609,0.7566 H 41.4499 V 331.774 h 3.5946 c 0.9626,0 1.7351,0.2421 2.3182,0.726 0.5828,0.4841 0.8742,1.165 0.8742,2.0426 0,1.0488 -0.4394,1.8204 -1.3184,2.3148 0.5644,0.252 0.9947,0.5723 1.2906,0.9606 0.2962,0.3884 0.4442,0.9103 0.4442,1.5659 z m -2.401,-4.5386 c 0,-0.7968 -0.4535,-1.1953 -1.3603,-1.1953 h -1.4851 v 2.4054 h 1.3882 c 0.9714,0 1.4572,-0.4033 1.4572,-1.2101 z m 0.4026,4.2965 c 0,-0.8473 -0.5046,-1.2708 -1.5132,-1.2708 h -1.7348 v 2.4962 h 1.7904 c 0.4629,0 0.8212,-0.1032 1.0757,-0.3101 0.2543,-0.2066 0.3819,-0.5116 0.3819,-0.9153 z M 58.9,337.1448 c 0,1.5732 -0.4116,2.8644 -1.2351,3.873 -0.8235,1.0086 -1.8737,1.5128 -3.1504,1.5128 -1.2864,0 -2.3386,-0.4991 -3.1575,-1.4978 -0.819,-0.9983 -1.2286,-2.2844 -1.2286,-3.8579 v -0.1815 c 0,-1.5834 0.4119,-2.8771 1.2354,-3.8806 0.8234,-1.0034 1.8782,-1.5052 3.1643,-1.5052 1.277,0 2.325,0.4992 3.1436,1.4976 0.8189,0.9986 1.2283,2.2847 1.2283,3.8579 z m -2.0679,0.0301 v -0.1815 c 0,-1.0286 -0.2149,-1.8481 -0.6455,-2.4584 -0.43,-0.6103 -0.9875,-0.9153 -1.6721,-0.9153 -0.6942,0 -1.2515,0.3001 -1.6725,0.9002 -0.4209,0.6001 -0.6315,1.4145 -0.6315,2.4432 v 0.1817 c 0,1.0287 0.2149,1.8482 0.6454,2.4585 0.4301,0.61 0.9876,0.9153 1.6722,0.9153 0.6942,0 1.2518,-0.3002 1.6727,-0.9003 0.421,-0.6001 0.6313,-1.4145 0.6313,-2.4434 z m 3.5989,3.3587 c 0.2128,0 0.3886,-0.0354 0.5272,-0.106 0.1389,-0.0706 0.2778,-0.2319 0.4164,-0.4841 0.1389,-0.252 0.2475,-0.6101 0.3263,-1.0741 0.0785,-0.464 0.1409,-1.0993 0.1874,-1.9063 0.0462,-0.8067 0.0694,-1.7952 0.0694,-2.9653 v -2.2238 h 6.1206 v 10.5903 h -1.9985 v -8.5933 h -2.2345 v 1.2254 c 0,2.0274 -0.0995,3.583 -0.2985,4.6673 -0.199,1.0842 -0.4972,1.8229 -0.8952,2.2164 -0.3977,0.3934 -0.9623,0.5902 -1.6934,0.5902 -0.2684,0 -0.6242,-0.0457 -1.0684,-0.1364 l 0.2081,-1.8456 c 0.0924,0.0303 0.2035,0.0453 0.3331,0.0453 z m 11.9678,-6.7626 v 8.5933 H 70.4001 V 331.774 h 5.7875 v 1.997 z m 13.8552,3.3738 c 0,1.5732 -0.4116,2.8644 -1.235,3.873 -0.8235,1.0086 -1.8737,1.5128 -3.1507,1.5128 -1.2861,0 -2.3383,-0.4991 -3.1573,-1.4978 -0.8189,-0.9983 -1.2285,-2.2844 -1.2285,-3.8579 v -0.1815 c 0,-1.5834 0.4119,-2.8771 1.2353,-3.8806 0.8235,-1.0034 1.8783,-1.5052 3.1643,-1.5052 1.277,0 2.3247,0.4992 3.1437,1.4976 0.8189,0.9986 1.2282,2.2847 1.2282,3.8579 z m -2.0679,0.0301 v -0.1815 c 0,-1.0286 -0.2151,-1.8481 -0.6454,-2.4584 -0.43,-0.6103 -0.9876,-0.9153 -1.6724,-0.9153 -0.694,0 -1.2513,0.3001 -1.6722,0.9002 -0.421,0.6001 -0.6316,1.4145 -0.6316,2.4432 v 0.1817 c 0,1.0287 0.2149,1.8482 0.6452,2.4585 0.4303,0.61 0.9879,0.9153 1.6724,0.9153 0.6942,0 1.2515,-0.3002 1.6728,-0.9003 0.4209,-0.6001 0.6312,-1.4145 0.6312,-2.4434 z m 6.0415,-3.4039 v 8.5933 H 88.2292 V 331.774 h 5.7875 v 1.997 z m 12.2179,1.6642 c 0,1.1801 -0.3401,2.0929 -1.0202,2.7383 -0.68,0.6455 -1.5522,0.9683 -2.6164,0.9683 h -1.1378 v 3.2225 H 95.6724 V 331.774 h 3.2199 c 1.0919,0 1.957,0.3251 2.5954,0.9757 0.6383,0.6506 0.9578,1.5457 0.9578,2.6855 z m -2.0268,0.0454 c 0,-0.5649 -0.1383,-0.9935 -0.4161,-1.2861 -0.2775,-0.2925 -0.6664,-0.4388 -1.1659,-0.4388 h -1.1656 v 3.4192 h 1.1795 c 0.4811,0 0.8629,-0.1537 1.1449,-0.4612 0.2824,-0.3079 0.4232,-0.7189 0.4232,-1.2331 z m 11.0107,6.8837 h -2.0682 l -0.7214,-2.2998 h -3.331 l -0.722,2.2998 h -2.0123 l 3.4696,-10.6509 h 1.9156 z m -3.4002,-4.2361 -1.0551,-3.4495 -1.0686,3.4495 z m 10.8709,-4.3572 h -2.2621 v 0.1664 c 0,1.4825 -0.0623,2.7156 -0.1874,3.6989 -0.125,0.9834 -0.3398,1.8939 -0.6454,2.7309 h 3.0949 z m 1.0689,8.5933 h -5.0797 l -0.1942,1.9819 h -1.7211 v -3.979 h 0.7633 c 0.3424,-0.9178 0.5896,-1.9289 0.7424,-3.0333 0.1528,-1.1044 0.2291,-2.5192 0.2291,-4.2438 v -1.3161 h 6.19 v 8.5932 h 0.9995 l -0.25,3.979 h -1.6793 z m 10.6492,-1.2708 c -0.4348,0.4739 -0.8997,0.8294 -1.3946,1.0664 -0.4953,0.2372 -1.0897,0.3557 -1.7836,0.3557 -1.2492,0 -2.2785,-0.4943 -3.0883,-1.4828 -0.8093,-0.9884 -1.2144,-2.2844 -1.2144,-3.888 v -0.1363 c 0,-1.6036 0.4119,-2.9021 1.2353,-3.8957 0.8235,-0.9935 1.8783,-1.4902 3.1643,-1.4902 1.1937,0 2.1977,0.4034 3.0119,1.2104 l -0.9437,1.77 c -0.6755,-0.6253 -1.351,-0.938 -2.0265,-0.938 -0.6936,0 -1.2606,0.2976 -1.7002,0.8926 -0.4394,0.595 -0.6591,1.4021 -0.6591,2.4208 v 0.1511 c 0,1.0389 0.2175,1.8559 0.6523,2.4511 0.4348,0.595 1.0086,0.8924 1.7212,0.8924 0.6936,0 1.383,-0.3226 2.0679,-0.9681 z m 9.5114,1.2708 h -2.3732 l -2.4148,-4.3572 -0.9023,1.2405 v 3.1167 h -1.9987 V 331.774 h 1.9987 v 4.5689 l 3.1643,-4.5689 h 2.3871 l -3.2613,4.4782 z m 9.5808,0 h -2.0682 l -0.7214,-2.2998 h -3.331 l -0.722,2.2998 h -2.0123 l 3.4696,-10.6509 h 1.9157 z m -3.4002,-4.2361 -1.055,-3.4495 -1.0687,3.4495 z m 11.7179,-6.3542 v 10.5903 h -2.0123 v -3.4799 h -1.2631 l -1.7904,3.4799 h -2.2901 l 2.054,-3.9337 c -1.2028,-0.5646 -1.8043,-1.6288 -1.8043,-3.1921 0,-1.0389 0.2824,-1.8558 0.8467,-2.4508 0.5644,-0.5953 1.3417,-0.9179 2.3315,-0.9683 0.6109,-0.0304 1.2263,-0.0454 1.8462,-0.0454 z m -3.5532,5.1741 h 1.5409 v -3.1771 h -0.375 c -0.3238,0 -0.5667,0.003 -0.7285,0.007 -0.1619,0.005 -0.3703,0.0227 -0.6245,0.053 -0.2546,0.0303 -0.4442,0.0782 -0.5692,0.1437 -0.125,0.0658 -0.2568,0.1565 -0.3957,0.2724 -0.1386,0.116 -0.2359,0.2699 -0.2912,0.4615 -0.0555,0.1916 -0.0836,0.4184 -0.0836,0.6809 0,0.4941 0.1367,0.8773 0.4096,1.1497 0.273,0.2721 0.6455,0.4085 1.1172,0.4085 z m 23.9037,0.1967 c 0,1.5732 -0.4119,2.8644 -1.2354,3.873 -0.8231,1.0086 -1.8737,1.5128 -3.1504,1.5128 -1.2861,0 -2.3386,-0.4991 -3.1575,-1.4978 -0.8189,-0.9983 -1.2282,-2.2844 -1.2282,-3.8579 v -0.1815 c 0,-1.5834 0.4118,-2.8771 1.235,-3.8806 0.8235,-1.0034 1.8782,-1.5052 3.1646,-1.5052 1.277,0 2.3247,0.4992 3.1436,1.4976 0.819,0.9986 1.2283,2.2847 1.2283,3.8579 z m -2.0679,0.0301 v -0.1815 c 0,-1.0286 -0.2151,-1.8481 -0.6454,-2.4584 -0.4303,-0.6103 -0.9876,-0.9153 -1.6725,-0.9153 -0.6939,0 -1.2512,0.3001 -1.6724,0.9002 -0.421,0.6001 -0.6316,1.4145 -0.6316,2.4432 v 0.1817 c 0,1.0287 0.2152,1.8482 0.6455,2.4585 0.43,0.61 0.9876,0.9153 1.6724,0.9153 0.6939,0 1.2515,-0.3002 1.6724,-0.9003 0.421,-0.6001 0.6316,-1.4145 0.6316,-2.4434 z m 4.0428,5.1894 V 331.774 h 6.3983 v 1.997 h -4.3996 v 1.8607 h 1.8042 c 0.9993,0 1.7927,0.2976 2.3803,0.8926 0.5876,0.5953 0.8813,1.4122 0.8813,2.4511 0,1.0792 -0.3121,1.9137 -0.9369,2.5039 -0.6244,0.5899 -1.4272,0.885 -2.408,0.885 z m 1.9987,-1.9667 h 1.7904 c 0.3979,0 0.71,-0.1262 0.9368,-0.3785 0.2268,-0.252 0.3402,-0.5847 0.3402,-0.9983 0,-0.464 -0.1134,-0.8144 -0.3402,-1.0517 -0.2268,-0.2369 -0.5437,-0.3554 -0.9507,-0.3554 h -1.7765 z m 6.4576,0.136 c 0.2132,0 0.3889,-0.0354 0.5275,-0.106 0.1389,-0.0706 0.2775,-0.2319 0.4161,-0.4841 0.1389,-0.252 0.2478,-0.6101 0.3266,-1.0741 0.0785,-0.464 0.1409,-1.0993 0.1871,-1.9063 0.0465,-0.8067 0.0694,-1.7952 0.0694,-2.9653 v -2.2238 h 6.1209 v 10.5903 h -1.9987 v -8.5933 h -2.2346 v 1.2254 c 0,2.0274 -0.0995,3.583 -0.2985,4.6673 -0.1987,1.0842 -0.4972,1.8229 -0.8949,2.2164 -0.3979,0.3934 -0.9626,0.5902 -1.6934,0.5902 -0.2684,0 -0.6244,-0.0457 -1.0686,-0.1364 l 0.208,-1.8456 c 0.0927,0.0303 0.2036,0.0453 0.3331,0.0453 z m 18.0887,1.8307 h -2.0681 l -0.7217,-2.2998 h -3.3307 l -0.722,2.2998 h -2.0123 l 3.4696,-10.6509 h 1.9153 z m -3.4004,-4.2361 -1.0548,-3.4495 -1.0687,3.4495 z m 12.1068,2.9653 c -0.4349,0.4739 -0.8998,0.8294 -1.395,1.0664 -0.4952,0.2372 -1.0896,0.3557 -1.7833,0.3557 -1.2492,0 -2.2784,-0.4943 -3.0883,-1.4828 -0.8096,-0.9884 -1.2144,-2.2844 -1.2144,-3.888 v -0.1363 c 0,-1.6036 0.4119,-2.9021 1.2351,-3.8957 0.8237,-0.9935 1.8782,-1.4902 3.1646,-1.4902 1.1937,0 2.1977,0.4034 3.0118,1.2104 l -0.9437,1.77 c -0.6757,-0.6253 -1.3509,-0.938 -2.0264,-0.938 -0.694,0 -1.2609,0.2976 -1.7003,0.8926 -0.4396,0.595 -0.6593,1.4021 -0.6593,2.4208 v 0.1511 c 0,1.0389 0.2174,1.8559 0.6525,2.4511 0.4349,0.595 1.0086,0.8924 1.7209,0.8924 0.694,0 1.3834,-0.3226 2.0679,-0.9681 z m 8.0957,-7.2924 h -2.4151 v 8.5632 h -2.0123 v -8.5632 h -2.429 v -2.0271 h 6.8564 z m 5.07,8.5632 h -3.3309 V 331.774 h 1.9984 v 3.5249 h 1.4156 c 1.0548,0 1.8876,0.3127 2.4982,0.938 0.6108,0.6253 0.9161,1.4828 0.9161,2.5721 0,1.1296 -0.3282,2.0044 -0.9853,2.6249 -0.6571,0.6202 -1.4944,0.9304 -2.5121,0.9304 z m -1.3325,-1.9667 h 1.402 c 0.4442,0 0.7934,-0.1389 1.0477,-0.4162 0.2545,-0.2775 0.3815,-0.6531 0.3815,-1.127 0,-0.5145 -0.127,-0.9054 -0.3815,-1.1727 -0.2543,-0.2673 -0.6083,-0.4008 -1.0619,-0.4008 h -1.3878 z"
       style="fill:#ffffff;fill-rule:evenodd"
       id="path4420"
       inkscape:connector-curvature="0" />
  </g>
</svg>
