<?xml version="1.0" encoding="UTF-8" standalone="no"?>
<svg
   xmlns:dc="http://purl.org/dc/elements/1.1/"
   xmlns:cc="http://creativecommons.org/ns#"
   xmlns:rdf="http://www.w3.org/1999/02/22-rdf-syntax-ns#"
   xmlns:svg="http://www.w3.org/2000/svg"
   xmlns="http://www.w3.org/2000/svg"
   xmlns:xlink="http://www.w3.org/1999/xlink"
   xmlns:sodipodi="http://sodipodi.sourceforge.net/DTD/sodipodi-0.dtd"
   xmlns:inkscape="http://www.inkscape.org/namespaces/inkscape"
   version="1.1"
   width="231.35519"
   height="129.9187"
   id="svg972"
   viewBox="0 0 231.35519 129.9187"
   sodipodi:docname="shortlogo.svg"
   inkscape:version="0.92.4 (5da689c313, 2019-01-14)">
  <metadata
     id="metadata976">
    <rdf:RDF>
      <cc:Work
         rdf:about="">
        <dc:format>image/svg+xml</dc:format>
        <dc:type
           rdf:resource="http://purl.org/dc/dcmitype/StillImage" />
        <dc:title></dc:title>
      </cc:Work>
    </rdf:RDF>
  </metadata>
  <sodipodi:namedview
     pagecolor="#ffffff"
     bordercolor="#666666"
     borderopacity="1"
     objecttolerance="10"
     gridtolerance="10"
     guidetolerance="10"
     inkscape:pageopacity="0"
     inkscape:pageshadow="2"
     inkscape:window-width="1920"
     inkscape:window-height="1030"
     id="namedview974"
     showgrid="false"
     fit-margin-top="0"
     fit-margin-left="0"
     fit-margin-right="0"
     fit-margin-bottom="0"
     inkscape:zoom="1.5910963"
     inkscape:cx="219.74433"
     inkscape:cy="134.03041"
     inkscape:window-x="960"
     inkscape:window-y="0"
     inkscape:window-maximized="1"
     inkscape:current-layer="svg972" />
  <path
     d="m 9.5972,54.3235 c -0.5578,0.5405 -1.1543,0.9462 -1.7895,1.2163 -0.635,0.2704 -1.3978,0.4057 -2.2878,0.4057 -1.6027,0 -2.9234,-0.5639 -3.9617,-1.6909 C 0.5193,53.1275 0,51.6496 0,49.8206 v -0.1553 c 0,-1.8286 0.5283,-3.3097 1.5848,-4.4425 1.0562,-1.133 2.4095,-1.6993 4.0595,-1.6993 1.5313,0 2.8193,0.46 3.8636,1.3802 L 8.2975,46.9222 C 7.431,46.209 6.5644,45.8524 5.6976,45.8524 c -0.8901,0 -1.6172,0.3393 -2.181,1.0179 -0.5641,0.6787 -0.8458,1.5988 -0.8458,2.7604 v 0.1726 c 0,1.1846 0.2789,2.1164 0.8367,2.795 0.5579,0.6786 1.2941,1.0179 2.208,1.0179 0.8906,0 1.7744,-0.3679 2.6532,-1.1041 z m 1.8516,1.4493 v -12.077 h 9.1347 v 12.077 H 18.0192 V 45.9732 H 14.013 v 9.7996 z m 22.4175,-5.9522 c 0,1.7944 -0.5284,3.2667 -1.5848,4.4167 -1.0565,1.1503 -2.4035,1.7255 -4.042,1.7255 -1.6497,0 -3.0001,-0.5695 -4.0507,-1.7082 -1.0502,-1.1387 -1.5757,-2.605 -1.5757,-4.3994 V 49.648 c 0,-1.8057 0.5283,-3.2808 1.5848,-4.4252 1.0562,-1.1446 2.4097,-1.7166 4.0595,-1.7166 1.6381,0 2.9826,0.5692 4.0331,1.7079 1.0506,1.1386 1.5758,2.6053 1.5758,4.3996 z m -2.6532,0.0346 V 49.648 c 0,-1.173 -0.2758,-2.1075 -0.828,-2.8035 -0.5519,-0.6959 -1.2668,-1.0437 -2.1456,-1.0437 -0.89,0 -1.6052,0.3422 -2.1455,1.0265 -0.54,0.6842 -0.8099,1.6132 -0.8099,2.7864 v 0.2069 c 0,1.1733 0.2759,2.1076 0.8278,2.8035 0.5522,0.6959 1.267,1.044 2.1455,1.044 0.8904,0 1.6055,-0.3424 2.1455,-1.0267 0.5403,-0.6843 0.8102,-1.6132 0.8102,-2.7862 z m 13.39,-1.9842 c 0,1.3459 -0.4362,2.3867 -1.3085,3.1229 -0.8728,0.7362 -1.9916,1.1041 -3.3565,1.1041 H 38.478 v 3.6748 h -2.5642 v -12.077 h 4.1312 c 1.4006,0 2.5106,0.3711 3.3293,1.1129 0.8192,0.7418 1.2288,1.7626 1.2288,3.0623 z m -2.5996,0.0518 c 0,-0.644 -0.1781,-1.133 -0.5341,-1.4666 -0.356,-0.3334 -0.8546,-0.5003 -1.4958,-0.5003 H 38.478 v 3.8993 h 1.5134 c 0.6171,0 1.107,-0.1754 1.4692,-0.5264 0.3617,-0.3506 0.5429,-0.8195 0.5429,-1.406 z m 12.3394,-1.915 h -3.0982 v 9.765 h -2.5818 v -9.765 h -3.1161 v -2.312 h 8.7961 z m 11.1643,-2.312 v 12.077 h -2.5285 v -7.5739 l -4.5051,7.5739 h -2.3681 v -12.077 h 2.5285 v 7.4704 l 4.487,-7.4704 z m 11.7337,8.7472 c 0,1.0698 -0.4065,1.8921 -1.2194,2.4672 -0.8136,0.5752 -1.9083,0.8626 -3.2854,0.8626 h -4.7364 v -12.077 h 4.6117 c 1.2345,0 2.2258,0.2761 2.9738,0.8283 0.7478,0.5519 1.1217,1.3283 1.1217,2.3289 0,1.1963 -0.5638,2.0761 -1.6917,2.64 0.7242,0.2874 1.2761,0.6525 1.656,1.0953 0.3798,0.443 0.5697,1.038 0.5697,1.7858 z m -3.0804,-5.1758 c 0,-0.9085 -0.5816,-1.3629 -1.7447,-1.3629 h -1.9054 v 2.7431 h 1.7807 c 1.2461,0 1.8694,-0.4601 1.8694,-1.3802 z m 0.5162,4.8997 c 0,-0.9661 -0.6469,-1.4491 -1.9406,-1.4491 h -2.2257 v 2.8466 h 2.2969 c 0.5938,0 1.0536,-0.1177 1.3802,-0.3535 0.3262,-0.2359 0.4892,-0.584 0.4892,-1.044 z m 13.6749,3.6059 h -2.5642 v -4.9169 h -4.1128 v 4.9169 h -2.5642 v -12.077 h 2.5642 v 4.8481 h 4.1128 v -4.8481 h 2.5642 z m 12.909,0 h -2.653 l -0.926,-2.6223 h -4.2733 l -0.9258,2.6223 h -2.5818 l 4.4516,-12.1459 h 2.457 z M 96.8981,50.942 95.5451,47.0084 94.174,50.942 Z m 14.5477,-7.2462 v 12.077 h -2.5821 v -3.9682 h -1.62 l -2.2972,3.9682 h -2.9378 l 2.635,-4.4858 c -1.5429,-0.644 -2.3147,-1.8575 -2.3147,-3.6402 0,-1.1846 0.3622,-2.1164 1.0862,-2.795 0.7243,-0.6786 1.7212,-1.0466 2.9914,-1.1041 0.7835,-0.0346 1.5727,-0.0519 2.3681,-0.0519 z m -4.5584,5.9006 h 1.9763 v -3.6232 h -0.4805 c -0.4156,0 -0.7271,0.003 -0.9349,0.009 -0.208,0.006 -0.4748,0.0258 -0.8013,0.0603 -0.3263,0.0343 -0.5698,0.089 -0.7302,0.1639 -0.1602,0.0748 -0.3294,0.1783 -0.5071,0.3104 -0.1783,0.1324 -0.3028,0.3078 -0.3742,0.5264 -0.0712,0.2185 -0.1069,0.4773 -0.1069,0.7764 0,0.5635 0.1752,1.0006 0.5256,1.311 0.35,0.3107 0.8277,0.466 1.4332,0.466 z m 26.4948,-5.9006 v 12.077 h -14.868 v -12.077 h 2.5642 v 9.7997 h 3.5791 v -9.7997 h 2.5639 v 9.7997 h 3.5969 v -9.7997 z m 12.3571,12.077 h -3.045 l -3.098,-4.9688 -1.1574,1.4148 v 3.554 h -2.5642 v -12.077 h 2.5642 v 5.2104 l 4.0598,-5.2104 h 3.0623 l -4.1842,5.1069 z m 12.1791,-5.9522 c 0,1.7944 -0.5284,3.2667 -1.5849,4.4167 -1.0562,1.1503 -2.4035,1.7255 -4.0419,1.7255 -1.6498,0 -3.0002,-0.5695 -4.0507,-1.7082 -1.0503,-1.1387 -1.5758,-2.605 -1.5758,-4.3994 V 49.648 c 0,-1.8057 0.5284,-3.2808 1.5848,-4.4252 1.0562,-1.1446 2.4098,-1.7166 4.0595,-1.7166 1.6382,0 2.9827,0.5692 4.0332,1.7079 1.0505,1.1386 1.5758,2.6053 1.5758,4.3996 z m -2.6533,0.0346 V 49.648 c 0,-1.173 -0.2758,-2.1075 -0.828,-2.8035 -0.5519,-0.6959 -1.2668,-1.0437 -2.1455,-1.0437 -0.8901,0 -1.6053,0.3422 -2.1456,1.0265 -0.54,0.6842 -0.8098,1.6132 -0.8098,2.7864 v 0.2069 c 0,1.1733 0.2758,2.1076 0.8277,2.8035 0.5522,0.6959 1.2671,1.044 2.1455,1.044 0.8904,0 1.6056,-0.3424 2.1456,-1.0267 0.5403,-0.6843 0.8101,-1.6132 0.8101,-2.7862 z m 4.1312,3.8299 c 0.273,0 0.4984,-0.0402 0.6767,-0.1207 0.1777,-0.0805 0.356,-0.2645 0.534,-0.5519 0.178,-0.2878 0.3175,-0.696 0.4184,-1.2252 0.1009,-0.5289 0.1811,-1.2535 0.2407,-2.1736 0.0589,-0.9204 0.0887,-2.0475 0.0887,-3.3817 v -2.5362 h 7.8522 v 12.077 h -2.5639 v -9.7996 h -2.8667 v 1.3975 c 0,2.3119 -0.1275,4.0861 -0.3826,5.3226 -0.2554,1.2364 -0.6381,2.0789 -1.1486,2.5273 -0.5106,0.4488 -1.2345,0.673 -2.1722,0.673 -0.3444,0 -0.8014,-0.0519 -1.3712,-0.1554 l 0.2671,-2.1047 c 0.1187,0.0346 0.2613,0.0516 0.4274,0.0516 z m 22.72,2.0877 h -2.6532 l -0.9261,-2.6223 h -4.2732 l -0.9258,2.6223 h -2.5818 l 4.4515,-12.1459 h 2.4571 z m -4.3625,-4.8308 -1.3533,-3.9336 -1.3711,3.9336 z M 11.2532,73.8828 c 0,1.7943 -0.5284,3.2667 -1.5848,4.4167 -1.0565,1.1503 -2.4035,1.7254 -4.042,1.7254 -1.6497,0 -3.0001,-0.5695 -4.0507,-1.7081 C 0.5252,77.1781 0,75.7117 0,73.9174 v -0.2072 c 0,-1.8057 0.5283,-3.2808 1.5848,-4.4252 1.0562,-1.1446 2.4095,-1.7166 4.0595,-1.7166 1.6381,0 2.9826,0.5692 4.0331,1.7078 1.0506,1.1387 1.5758,2.6054 1.5758,4.3997 z M 8.6,73.9174 V 73.7102 C 8.6,72.5372 8.3242,71.6026 7.772,70.9067 7.2201,70.2108 6.5049,69.863 5.6264,69.863 c -0.89,0 -1.6055,0.3421 -2.1455,1.0264 -0.54,0.6843 -0.8101,1.6132 -0.8101,2.7865 v 0.2069 c 0,1.1733 0.2761,2.1076 0.828,2.8035 0.5521,0.6959 1.267,1.044 2.1455,1.044 0.8904,0 1.6055,-0.3424 2.1455,-1.0267 C 8.3298,76.0193 8.6,75.0904 8.6,73.9174 Z m 4.1312,3.8299 c 0.2727,0 0.4983,-0.0403 0.6766,-0.1208 0.1778,-0.0805 0.3561,-0.2644 0.5341,-0.5519 0.178,-0.2877 0.3175,-0.6959 0.4184,-1.2251 0.1009,-0.529 0.1811,-1.2535 0.2404,-2.1736 0.0592,-0.9204 0.089,-2.0475 0.089,-3.3817 V 67.758 h 7.8522 V 79.835 H 19.9777 V 70.0353 H 17.111 v 1.3975 c 0,2.312 -0.1275,4.0862 -0.3827,5.3226 -0.2554,1.2365 -0.6378,2.079 -1.1483,2.5274 -0.5105,0.4487 -1.2348,0.673 -2.1722,0.673 -0.3444,0 -0.8013,-0.0519 -1.3714,-0.1554 l 0.2673,-2.1047 c 0.1188,0.0346 0.2611,0.0516 0.4275,0.0516 z M 34.4361,67.758 V 79.835 H 31.9076 V 72.2611 L 27.4028,79.835 H 25.0344 V 67.758 h 2.5285 v 7.4704 L 32.0502,67.758 Z M 47.8615,79.835 H 45.333 v -7.7119 l -2.9378,4.9858 H 42.3416 L 39.4214,72.1747 V 79.835 H 36.9286 V 67.758 h 2.7068 l 2.7419,4.9 2.7599,-4.9 h 2.7243 z m 2.475,0 V 67.758 h 9.1346 V 79.835 H 56.9069 V 70.0353 H 52.9007 V 79.835 Z M 71.365,67.758 V 79.835 H 68.8368 V 72.2611 L 64.3317,79.835 H 61.9636 V 67.758 h 2.5285 v 7.4704 l 4.487,-7.4704 z m 11.8942,0 v 12.077 h -2.5285 v -7.5739 l -4.5049,7.5739 h -2.368 V 67.758 h 2.5285 v 7.4704 l 4.4869,-7.4704 z m -4.6296,-0.7418 c -0.7597,0 -1.3799,-0.2098 -1.8606,-0.6296 -0.4808,-0.4201 -0.7745,-1.0267 -0.8813,-1.8204 l 1.4601,-0.2588 c 0.1777,0.7361 0.6052,1.1044 1.2818,1.1044 0.6531,0 1.0744,-0.3683 1.2643,-1.1044 l 1.4422,0.2588 c -0.1068,0.7937 -0.3977,1.4003 -0.8725,1.8204 -0.4748,0.4198 -1.0862,0.6296 -1.834,0.6296 z m 16.2567,11.3694 c -0.5578,0.5406 -1.1542,0.9463 -1.7895,1.2164 -0.6352,0.2704 -1.3978,0.4056 -2.2881,0.4056 -1.6024,0 -2.9231,-0.5638 -3.9617,-1.6908 -1.0386,-1.1271 -1.5579,-2.6051 -1.5579,-4.434 v -0.1553 c 0,-1.8287 0.5283,-3.3098 1.5845,-4.4425 1.0565,-1.133 2.4098,-1.6994 4.0598,-1.6994 1.5313,0 2.8193,0.4601 3.8636,1.3802 l -1.2104,2.0186 c -0.8665,-0.7132 -1.7331,-1.0698 -2.5999,-1.0698 -0.8904,0 -1.6172,0.3393 -2.181,1.0179 -0.5641,0.6786 -0.8458,1.5988 -0.8458,2.7604 v 0.1726 c 0,1.1846 0.2789,2.1164 0.8368,2.795 0.5578,0.6786 1.294,1.0179 2.2079,1.0179 0.8903,0 1.7744,-0.3679 2.6529,-1.1041 z m 11.7159,1.4494 h -3.0447 l -3.098,-4.9688 -1.1574,1.4147 V 79.835 H 96.7379 V 67.758 h 2.5642 v 5.2104 l 4.0598,-5.2104 h 3.0623 l -4.1842,5.1069 z m 12.1793,-5.9522 c 0,1.7943 -0.5283,3.2667 -1.5848,4.4167 -1.0565,1.1503 -2.4035,1.7254 -4.0419,1.7254 -1.6498,0 -3.0002,-0.5695 -4.0507,-1.7081 -1.0506,-1.1387 -1.5758,-2.6051 -1.5758,-4.3994 v -0.2072 c 0,-1.8057 0.5284,-3.2808 1.5848,-4.4252 1.0562,-1.1446 2.4095,-1.7166 4.0595,-1.7166 1.6382,0 2.9826,0.5692 4.0332,1.7078 1.0505,1.1387 1.5757,2.6054 1.5757,4.3997 z m -2.6532,0.0346 v -0.2072 c 0,-1.173 -0.2758,-2.1076 -0.828,-2.8035 -0.5519,-0.6959 -1.2668,-1.0437 -2.1455,-1.0437 -0.8901,0 -1.6056,0.3421 -2.1456,1.0264 -0.54,0.6843 -0.8098,1.6132 -0.8098,2.7865 v 0.2069 c 0,1.1733 0.2758,2.1076 0.8277,2.8035 0.5522,0.6959 1.2671,1.044 2.1455,1.044 0.8904,0 1.6056,-0.3424 2.1456,-1.0267 0.54,-0.6843 0.8101,-1.6132 0.8101,-2.7862 z m 7.2649,-3.8821 V 79.835 H 120.829 V 67.758 h 7.4251 v 2.2773 z m 17.2894,3.8475 c 0,1.7943 -0.5284,3.2667 -1.5849,4.4167 -1.0565,1.1503 -2.4035,1.7254 -4.0419,1.7254 -1.6498,0 -3.0002,-0.5695 -4.0507,-1.7081 -1.0502,-1.1387 -1.5758,-2.6051 -1.5758,-4.3994 v -0.2072 c 0,-1.8057 0.5284,-3.2808 1.5849,-4.4252 1.0562,-1.1446 2.4097,-1.7166 4.0595,-1.7166 1.6381,0 2.9826,0.5692 4.0331,1.7078 1.0505,1.1387 1.5758,2.6054 1.5758,4.3997 z m -2.6533,0.0346 v -0.2072 c 0,-1.173 -0.2758,-2.1076 -0.828,-2.8035 -0.5519,-0.6959 -1.2668,-1.0437 -2.1455,-1.0437 -0.8901,0 -1.6053,0.3421 -2.1455,1.0264 -0.54,0.6843 -0.8099,1.6132 -0.8099,2.7865 v 0.2069 c 0,1.1733 0.2758,2.1076 0.8277,2.8035 0.5522,0.6959 1.2671,1.044 2.1456,1.044 0.8903,0 1.6055,-0.3424 2.1455,-1.0267 0.5403,-0.6843 0.8101,-1.6132 0.8101,-2.7862 z M 9.1519,95.9953 c 0,1.3459 -0.436,2.3868 -1.3085,3.1229 -0.8725,0.7362 -1.9913,1.1041 -3.3565,1.1041 H 3.0268 v 3.6749 H 0.4629 v -12.077 h 4.1309 c 1.4009,0 2.5106,0.371 3.3296,1.1128 0.8192,0.7419 1.2285,1.7626 1.2285,3.0623 z m -2.5994,0.0519 c 0,-0.644 -0.1783,-1.133 -0.5343,-1.4667 C 5.6622,94.2472 5.1638,94.0802 4.5224,94.0802 H 3.0268 v 3.8994 h 1.5134 c 0.6174,0 1.1072,-0.1755 1.4692,-0.5264 0.362,-0.3507 0.5431,-0.8195 0.5431,-1.406 z m 12.375,7.85 h -8.0839 v -12.077 h 8.0124 v 2.243 H 13.39 v 2.6396 h 4.8072 v 2.2428 H 13.39 v 2.7088 h 5.5375 z m 5.6624,0.1726 c -1.7331,0 -3.2289,-0.5003 -4.4872,-1.5012 l 1.0148,-1.8805 c 0.9142,0.7248 1.8876,1.0871 2.9203,1.0871 1.4958,0 2.2436,-0.4661 2.2436,-1.3975 0,-0.5063 -0.205,-0.8944 -0.6143,-1.1648 -0.4096,-0.2701 -0.9762,-0.4053 -1.7008,-0.4053 h -1.0326 v -2.0705 h 0.9972 c 0.6055,0 1.1188,-0.1493 1.5403,-0.4484 0.4213,-0.2991 0.6319,-0.6613 0.6319,-1.0868 0,-0.4258 -0.1809,-0.7478 -0.5429,-0.9663 -0.3622,-0.2186 -0.8458,-0.3277 -1.4513,-0.3277 -0.9734,0 -1.8516,0.3506 -2.6351,1.0522 l -1.0151,-1.777 c 0.5579,-0.5174 1.1693,-0.9 1.834,-1.1472 0.6651,-0.2472 1.5016,-0.3711 2.5107,-0.3711 1.1276,0 2.0475,0.2962 2.7598,0.8887 0.7123,0.5924 1.0684,1.3544 1.0684,2.2858 0,1.2884 -0.6472,2.2085 -1.9406,2.7607 1.4601,0.483 2.19,1.4434 2.19,2.8811 0,1.0696 -0.3948,1.9353 -1.184,2.5966 -0.7897,0.6613 -1.8252,0.9921 -3.1071,0.9921 z m 14.3513,-0.1726 h -8.0841 v -12.077 h 8.0127 v 2.243 h -5.4664 v 2.6396 h 4.8076 v 2.2428 h -4.8076 v 2.7088 h 5.5378 z m 10.7189,-7.9019 c 0,1.3459 -0.4362,2.3868 -1.3087,3.1229 -0.8725,0.7362 -1.9914,1.1041 -3.3563,1.1041 H 43.535 v 3.6749 h -2.5642 v -12.077 h 4.1312 c 1.4006,0 2.5107,0.371 3.3293,1.1128 0.8192,0.7419 1.2288,1.7626 1.2288,3.0623 z m -2.5996,0.0519 c 0,-0.644 -0.1781,-1.133 -0.5341,-1.4667 -0.356,-0.3333 -0.8546,-0.5003 -1.4958,-0.5003 H 43.535 v 3.8994 h 1.5134 c 0.6171,0 1.107,-0.1755 1.4692,-0.5264 0.3617,-0.3507 0.5429,-0.8195 0.5429,-1.406 z m 13.5323,4.5201 c 0,1.0698 -0.4065,1.8921 -1.2195,2.4673 -0.8132,0.5751 -1.9083,0.8626 -3.2853,0.8626 h -4.7365 v -12.077 h 4.6117 c 1.2348,0 2.2258,0.2761 2.9739,0.8283 0.7477,0.5519 1.1216,1.3283 1.1216,2.3289 0,1.1962 -0.5638,2.0761 -1.6914,2.6399 0.724,0.2874 1.2759,0.6525 1.6557,1.0953 0.3801,0.4431 0.5698,1.0381 0.5698,1.7858 z m -3.0804,-5.1758 c 0,-0.9085 -0.5817,-1.3629 -1.7448,-1.3629 h -1.9054 v 2.7431 h 1.7807 c 1.2464,0 1.8695,-0.46 1.8695,-1.3802 z m 0.5164,4.8997 c 0,-0.966 -0.6468,-1.449 -1.9408,-1.449 h -2.2258 v 2.8465 h 2.2972 c 0.5936,0 1.0533,-0.1176 1.3799,-0.3535 0.3265,-0.2358 0.4895,-0.5839 0.4895,-1.044 z m 14.8499,3.606 h -2.6529 l -0.9261,-2.6224 h -4.2733 l -0.9257,2.6224 h -2.5818 l 4.4515,-12.1459 h 2.4571 z m -4.3625,-4.8308 -1.353,-3.9337 -1.3711,3.9337 z"
     style="fill:#005da9;fill-rule:evenodd"
     id="path875"
     inkscape:connector-curvature="0" />
  <defs
     id="defs883">
    <linearGradient
       id="grad17">
      <stop
         offset="0%"
         stop-color="#009ee0"
         stop-opacity="1.0000"
         id="stop877" />
      <stop
         offset="100%"
         stop-color="#ffffff"
         stop-opacity="1.0000"
         id="stop879" />
    </linearGradient>
    <linearGradient
       xlink:href="#grad17"
       id="grad18"
       x1="257.08003"
       y1="294.52551"
       x2="257.08003"
       y2="340.27326"
       gradientTransform="matrix(1.3169743,0,0,0.75931624,-181.9602,-162.5581)"
       gradientUnits="userSpaceOnUse" />
  </defs>
  <path
     d="m 216.2452,70.839 c 0.6825,-3.2324 0.7931,-6.5288 0.3325,-9.7591 -0.6194,1.0187 -1.2887,1.995 -2.003,2.9262 -3.6374,6.7589 -9.6423,12.2275 -17.2505,15.0749 l 0.2557,3.6252 -21.2412,-13.1111 -4.5669,1.8377 h 3e-4 c -5.8079,2.5971 -10.8958,6.1013 -15.1645,10.0882 4.6193,7.2712 12.4691,12.3849 21.6757,13.86 2.1112,0.3382 4.2148,0.4743 6.2881,0.4267 0.1171,-2.4101 1.1424,-4.5825 2.7408,-6.1813 1.7005,-1.7002 4.0502,-2.7524 6.6447,-2.7524 2.5946,0 4.9445,1.0522 6.6447,2.7524 0.379,0.3796 0.7262,0.7912 1.0366,1.2306 7.3196,-4.415 12.8055,-11.4849 14.607,-20.018 z"
     style="fill:url(#grad18)"
     id="path885"
     inkscape:connector-curvature="0" />
  <defs
     id="defs893">
    <linearGradient
       id="grad19">
      <stop
         offset="0%"
         stop-color="#009035"
         stop-opacity="1.0000"
         id="stop887" />
      <stop
         offset="100%"
         stop-color="#ffffff"
         stop-opacity="1.0000"
         id="stop889" />
    </linearGradient>
    <linearGradient
       xlink:href="#grad19"
       id="grad20"
       x1="576.35965"
       y1="113.18196"
       x2="576.35965"
       y2="154.9284"
       gradientTransform="matrix(0.65113337,0,0,1.5357837,-181.9602,-162.5581)"
       gradientUnits="userSpaceOnUse" />
  </defs>
  <path
     d="m 204.0213,13.951 c -3.1255,-1.5029 -6.4701,-2.4097 -9.8867,-2.6861 0.5213,0.4964 1.0267,1.0109 1.5146,1.5421 6.4278,5.1981 10.8499,12.7987 11.8797,21.4818 l 3.5827,0.6137 -17.7848,17.5152 3.2958,22.9607 c 9.7262,-1.9191 18.0709,-8.8915 22.2131,-18.7192 0.6942,-1.6461 1.2487,-3.3205 1.6736,-5.0082 -1.4975,-0.4541 -2.8369,-1.2714 -3.9152,-2.3497 -1.7005,-1.7005 -2.7524,-4.0495 -2.7524,-6.6444 0,-2.5948 1.0519,-4.9439 2.7524,-6.6444 1.0148,-1.0148 2.2606,-1.7986 3.6522,-2.2657 -2.4197,-8.5207 -8.0932,-15.8871 -16.225,-19.7958 z"
     style="fill:url(#grad20)"
     id="path895"
     inkscape:connector-curvature="0" />
  <defs
     id="defs903">
    <linearGradient
       id="grad21">
      <stop
         offset="0%"
         stop-color="#009035"
         stop-opacity="1.0000"
         id="stop897" />
      <stop
         offset="100%"
         stop-color="#ffffff"
         stop-opacity="1.0000"
         id="stop899" />
    </linearGradient>
    <linearGradient
       xlink:href="#grad21"
       id="grad22"
       x1="398.2507"
       y1="197.6825"
       x2="398.2507"
       y2="212.7472"
       gradientUnits="userSpaceOnUse"
       gradientTransform="translate(-181.9602,-162.5581)" />
  </defs>
  <path
     d="m 223.8227,35.1244 c 4.1602,0 7.5325,3.3724 7.5325,7.5325 0,4.1601 -3.3723,7.5322 -7.5325,7.5322 -4.1601,0 -7.5322,-3.3721 -7.5322,-7.5322 0,-4.1601 3.3721,-7.5325 7.5322,-7.5325 z"
     style="fill:url(#grad22)"
     id="path905"
     inkscape:connector-curvature="0" />
  <defs
     id="defs913">
    <linearGradient
       id="grad23">
      <stop
         offset="0%"
         stop-color="#e30016"
         stop-opacity="1.0000"
         id="stop907" />
      <stop
         offset="100%"
         stop-color="#ffffff"
         stop-opacity="1.0000"
         id="stop909" />
    </linearGradient>
    <linearGradient
       xlink:href="#grad23"
       id="grad24"
       x1="240.28738"
       y1="222.68851"
       x2="240.28738"
       y2="268.80853"
       gradientTransform="matrix(1.3471033,0,0,0.74233358,-181.9602,-162.5581)"
       gradientUnits="userSpaceOnUse" />
  </defs>
  <path
     d="m 165.1546,34.4273 9.7542,-23.0352 8.3499,19.7194 20.6012,2.8041 c 0.02,-4.9765 -1.1454,-9.7184 -3.2461,-13.9339 -2.4981,-5.0141 -6.5437,-9.483 -11.2758,-12.4645 -3.9394,-2.4807 -8.4935,-4.11 -13.4245,-4.6071 -4.5394,-0.4577 -8.9488,0.0864 -13.009,1.4529 0.4203,1.0665 0.6514,2.2282 0.6514,3.444 0,2.595 -1.0521,4.9446 -2.7524,6.645 -1.7004,1.7005 -4.0497,2.7524 -6.6447,2.7524 -2.3126,0 -4.4305,-0.8358 -6.0676,-2.2215 -3.3711,4.4137 -5.6022,9.7854 -6.2003,15.7167 -0.2151,2.1324 -0.2091,4.2354 -8e-4,6.2879 z"
     style="fill:url(#grad24)"
     id="path915"
     inkscape:connector-curvature="0" />
  <defs
     id="defs923">
    <linearGradient
       id="grad25">
      <stop
         offset="0%"
         stop-color="#e30016"
         stop-opacity="1.0000"
         id="stop917" />
      <stop
         offset="100%"
         stop-color="#ffffff"
         stop-opacity="1.0000"
         id="stop919" />
    </linearGradient>
    <linearGradient
       xlink:href="#grad25"
       id="grad26"
       x1="328.4152"
       y1="162.5581"
       x2="328.4152"
       y2="177.6226"
       gradientUnits="userSpaceOnUse"
       gradientTransform="translate(-181.9602,-162.5581)" />
  </defs>
  <path
     d="m 153.9873,0 c 4.1598,0 7.5322,3.3721 7.5322,7.5323 0,4.1601 -3.3724,7.5322 -7.5322,7.5322 -4.1602,0 -7.5323,-3.3721 -7.5323,-7.5322 C 146.455,3.3721 149.8271,0 153.9873,0 Z"
     style="fill:url(#grad26)"
     id="path925"
     inkscape:connector-curvature="0" />
  <defs
     id="defs933">
    <linearGradient
       id="grad27">
      <stop
         offset="0%"
         stop-color="#00509e"
         stop-opacity="1.0000"
         id="stop927" />
      <stop
         offset="100%"
         stop-color="#ffffff"
         stop-opacity="1.0000"
         id="stop929" />
    </linearGradient>
    <linearGradient
       xlink:href="#grad27"
       id="grad28"
       x1="180.02033"
       y1="521.38155"
       x2="180.02033"
       y2="558.00075"
       gradientTransform="matrix(1.9078462,0,0,0.52415127,-181.9602,-162.5581)"
       gradientUnits="userSpaceOnUse" />
  </defs>
  <path
     d="m 212.7475,129.9187 c 10.415,-1.7221 18.337,-9.6265 18.6072,-19.194 h -69.8638 c 0.6173,10.552 8.3349,17.3665 21.2436,19.1855 l 0.0508,0.007 0.004,6e-4 0.004,6e-4 h 3e-4 z"
     style="fill:url(#grad28)"
     id="path935"
     inkscape:connector-curvature="0" />
  <defs
     id="defs943">
    <linearGradient
       id="grad29">
      <stop
         offset="0%"
         stop-color="#009ee0"
         stop-opacity="1.0000"
         id="stop937" />
      <stop
         offset="100%"
         stop-color="#ffffff"
         stop-opacity="1.0000"
         id="stop939" />
    </linearGradient>
    <linearGradient
       xlink:href="#grad29"
       id="grad30"
       x1="368.5912"
       y1="251.8299"
       x2="368.5912"
       y2="266.8944"
       gradientUnits="userSpaceOnUse"
       gradientTransform="translate(-181.9602,-162.5581)" />
  </defs>
  <path
     d="m 194.1633,89.2718 c 4.1601,0 7.5322,3.3721 7.5322,7.5322 0,4.1602 -3.3721,7.5323 -7.5322,7.5323 -4.1602,0 -7.5323,-3.3721 -7.5323,-7.5323 0,-4.1601 3.3721,-7.5322 7.5323,-7.5322 z"
     style="fill:url(#grad30)"
     id="path945"
     inkscape:connector-curvature="0" />
  <defs
     id="defs953">
    <linearGradient
       id="grad31">
      <stop
         offset="0%"
         stop-color="#00509e"
         stop-opacity="1.0000"
         id="stop947" />
      <stop
         offset="100%"
         stop-color="#ffffff"
         stop-opacity="1.0000"
         id="stop949" />
    </linearGradient>
    <linearGradient
       xlink:href="#grad31"
       id="grad32"
       x1="341.4695"
       y1="233.11738"
       x2="341.4695"
       y2="276.90861"
       gradientUnits="userSpaceOnUse"
       gradientTransform="matrix(0.94677183,0,0,1.0562207,-181.9602,-162.5581)" />
  </defs>
  <path
     d="m 161.4907,90.1146 c -2.0923,-0.9707 -4.8539,-3.4228 -7.0582,-6.4493 l 2e-4,6e-4 c -8.4223,8.7721 -13.0992,19.3758 -13.0992,27.7911 1.917,11.2341 8.1935,16.466 16.7094,18.4615 l 3.4478,-0.002 21.3031,0.002 c -0.003,-2e-4 -0.006,-5e-4 -0.008,-0.001 -12.9395,-1.8083 -20.6762,-8.6269 -21.2947,-19.1928 z"
     style="fill:url(#grad32)"
     id="path955"
     inkscape:connector-curvature="0" />
  <path
     d="M 138.7362,110.7247 H 0.1781 v 19.1939 h 150.4395 c -6.5686,-3.5409 -10.415,-9.6462 -11.8446,-18.0249 l -0.0368,-0.2168 z"
     style="fill:#e30016;fill-rule:evenodd"
     id="path957"
     inkscape:connector-curvature="0" />
  <path
     d="m 9.898,121.8456 c 0,0.7313 -0.2322,1.2937 -0.6959,1.6872 -0.4638,0.3931 -1.0883,0.5899 -1.8737,0.5899 H 4.6267 v -8.2594 h 2.6305 c 0.7041,0 1.2694,0.1888 1.6963,0.5664 0.4263,0.3776 0.6397,0.9085 0.6397,1.5928 0,0.8181 -0.3217,1.4199 -0.9649,1.8054 0.413,0.1967 0.728,0.4464 0.9445,0.7492 0.2169,0.3027 0.3252,0.7098 0.3252,1.2211 z m -1.7572,-3.5399 c 0,-0.6214 -0.3317,-0.9321 -0.9956,-0.9321 H 6.0587 v 1.876 h 1.0157 c 0.7109,0 1.0664,-0.3146 1.0664,-0.9439 z m 0.2945,3.3511 c 0,-0.6608 -0.3691,-0.9913 -1.1069,-0.9913 H 6.0587 v 1.9469 h 1.3102 c 0.3387,0 0.6009,-0.0805 0.7872,-0.2418 0.1862,-0.1613 0.2792,-0.3992 0.2792,-0.7138 z m 8.479,-1.6047 c 0,1.2271 -0.3013,2.234 -0.9043,3.0203 -0.6023,0.7866 -1.3708,1.1801 -2.3051,1.1801 -0.9414,0 -1.7116,-0.3895 -2.3108,-1.1682 -0.5992,-0.7787 -0.8989,-1.7815 -0.8989,-3.0087 v -0.1417 c 0,-1.2348 0.3014,-2.2436 0.904,-3.0263 0.6026,-0.7826 1.3745,-1.1741 2.3156,-1.1741 0.9346,0 1.7011,0.3895 2.3003,1.1682 0.5996,0.7787 0.8992,1.7816 0.8992,3.0087 z m -1.5134,0.0235 v -0.1417 c 0,-0.8022 -0.1574,-1.4414 -0.4723,-1.9171 -0.3149,-0.4759 -0.7228,-0.714 -1.2237,-0.714 -0.508,0 -0.9159,0.2341 -1.224,0.7021 -0.3081,0.468 -0.462,1.1033 -0.462,1.9055 v 0.1417 c 0,0.8022 0.1573,1.4414 0.4722,1.9174 0.3149,0.4756 0.7228,0.7137 1.2237,0.7137 0.5077,0 0.9159,-0.2341 1.224,-0.7021 0.3081,-0.468 0.4621,-1.1033 0.4621,-1.9055 z m 2.1515,2.6192 c 0.1559,0 0.2843,-0.0275 0.3858,-0.0824 0.1017,-0.055 0.2032,-0.1809 0.3047,-0.3776 0.1018,-0.1967 0.1811,-0.476 0.2387,-0.8377 0.0575,-0.3619 0.1031,-0.8574 0.1372,-1.4867 0.034,-0.6293 0.0507,-1.4001 0.0507,-2.3125 v -1.7346 h 4.479 v 8.2594 h -1.4624 v -6.7017 h -1.6353 v 0.9555 c 0,1.5812 -0.0728,2.7944 -0.2182,3.64 -0.1455,0.8456 -0.364,1.4219 -0.6551,1.7286 -0.2914,0.3067 -0.7042,0.46 -1.2393,0.46 -0.1962,0 -0.457,-0.0354 -0.7818,-0.106 l 0.1522,-1.4394 c 0.0677,0.0235 0.1491,0.0351 0.2438,0.0351 z m 8.276,-5.2738 v 6.7017 h -1.4627 v -8.2594 h 4.2353 v 1.5577 z m 9.6568,2.6311 c 0,1.2271 -0.3013,2.234 -0.904,3.0203 -0.6023,0.7866 -1.3708,1.1801 -2.3051,1.1801 -0.9414,0 -1.7116,-0.3895 -2.3108,-1.1682 -0.5993,-0.7787 -0.8989,-1.7815 -0.8989,-3.0087 v -0.1417 c 0,-1.2348 0.3013,-2.2436 0.904,-3.0263 0.6026,-0.7826 1.3745,-1.1741 2.3156,-1.1741 0.9346,0 1.7011,0.3895 2.3003,1.1682 0.5993,0.7787 0.8989,1.7816 0.8989,3.0087 z m -1.5131,0.0235 v -0.1417 c 0,-0.8022 -0.1574,-1.4414 -0.4726,-1.9171 -0.3146,-0.4759 -0.7225,-0.714 -1.2234,-0.714 -0.5083,0 -0.9159,0.2341 -1.224,0.7021 -0.3081,0.468 -0.4621,1.1033 -0.4621,1.9055 v 0.1417 c 0,0.8022 0.1574,1.4414 0.4723,1.9174 0.3149,0.4756 0.7228,0.7137 1.2237,0.7137 0.5077,0 0.9156,-0.2341 1.224,-0.7021 0.3081,-0.468 0.4621,-1.1033 0.4621,-1.9055 z m 3.939,-2.6546 v 6.7017 h -1.4624 v -8.2594 h 4.2349 v 1.5577 z m 8.4586,1.2977 c 0,0.9204 -0.2489,1.6322 -0.7464,2.1356 -0.4978,0.5034 -1.1358,0.7552 -1.9145,0.7552 h -0.8326 v 2.5132 h -1.4626 v -8.2594 h 2.3561 c 0.7991,0 1.4321,0.2537 1.8992,0.7612 0.4672,0.5074 0.7008,1.2055 0.7008,2.0942 z m -1.4828,0.0354 c 0,-0.4405 -0.1015,-0.7747 -0.3048,-1.0029 -0.2029,-0.2282 -0.4875,-0.3421 -0.8529,-0.3421 h -0.853 v 2.6665 h 0.8632 c 0.3521,0 0.6313,-0.1199 0.8379,-0.36 0.2064,-0.2398 0.3096,-0.5604 0.3096,-0.9615 z m 7.5753,5.3686 h -1.5135 l -0.528,-1.7935 h -2.4373 l -0.5284,1.7935 h -1.4726 l 2.539,-8.3064 h 1.4018 z m -2.4883,-3.3038 -0.7721,-2.6901 -0.7821,2.6901 z m 7.4733,-3.3979 h -1.6557 v 0.1295 c 0,1.1566 -0.0457,2.1181 -0.137,2.8848 -0.0912,0.7671 -0.2488,1.4769 -0.4722,2.13 h 2.2649 z m 0.782,6.7017 h -3.7173 l -0.142,1.5457 h -1.2597 v -3.1031 h 0.5587 c 0.2506,-0.716 0.4317,-1.5043 0.5434,-2.3658 0.1117,-0.8614 0.1675,-1.9644 0.1675,-3.3097 v -1.0265 h 4.5298 v 6.702 h 0.7313 l -0.1831,3.1031 h -1.2286 z m 7.3109,-0.991 c -0.3181,0.3696 -0.6585,0.6468 -1.0208,0.8316 -0.3622,0.1849 -0.7974,0.2773 -1.305,0.2773 -0.9139,0 -1.6674,-0.3853 -2.2598,-1.1563 -0.5925,-0.7707 -0.8887,-1.7815 -0.8887,-3.0322 v -0.1063 c 0,-1.2506 0.3013,-2.2635 0.904,-3.0382 0.6026,-0.7747 1.3745,-1.1622 2.3156,-1.1622 0.8734,0 1.6081,0.3147 2.2039,0.944 l -0.6908,1.3804 c -0.494,-0.4878 -0.9884,-0.7316 -1.4828,-0.7316 -0.5076,0 -0.9224,0.2322 -1.2441,0.6962 -0.3214,0.464 -0.4824,1.0933 -0.4824,1.8879 v 0.1179 c 0,0.8101 0.1593,1.4474 0.4773,1.9114 0.3183,0.464 0.7382,0.6962 1.2594,0.6962 0.508,0 1.0123,-0.2517 1.5135,-0.7552 z m 6.478,0.991 h -1.7365 l -1.7674,-3.3982 -0.6599,0.9674 v 2.4308 h -1.4627 v -8.2594 h 1.4627 v 3.5635 l 2.3156,-3.5635 h 1.7467 l -2.3868,3.4926 z m 6.529,0 h -1.5134 l -0.5281,-1.7935 h -2.4375 l -0.5281,1.7935 h -1.4726 l 2.539,-8.3064 h 1.4015 z m -2.4882,-3.3038 -0.7722,-2.6901 -0.782,2.6901 z m 8.0926,-4.9556 v 8.2594 h -1.4726 v -2.7139 h -0.9241 l -1.3101,2.7139 h -1.6759 l 1.5032,-3.0677 c -0.8801,-0.4405 -1.3204,-1.2705 -1.3204,-2.4897 0,-0.8101 0.2064,-1.4473 0.6194,-1.9114 0.4133,-0.464 0.9819,-0.7157 1.7065,-0.7551 0.4467,-0.0235 0.8971,-0.0355 1.3507,-0.0355 z m -2.5999,4.0355 h 1.1273 v -2.4778 h -0.2741 c -0.237,0 -0.415,0.002 -0.5332,0.006 -0.1185,0.004 -0.271,0.0178 -0.4569,0.0413 -0.1863,0.0236 -0.3252,0.061 -0.4167,0.112 -0.0916,0.0513 -0.188,0.1222 -0.2894,0.2126 -0.1015,0.0904 -0.1727,0.2103 -0.2132,0.3597 -0.0408,0.1494 -0.061,0.3266 -0.061,0.531 0,0.3855 0.0998,0.6845 0.2997,0.8968 0.1995,0.2124 0.4722,0.3187 0.8175,0.3187 z m 17.0093,0.1533 c 0,1.2271 -0.3014,2.234 -0.904,3.0203 -0.6024,0.7866 -1.3711,1.1801 -2.3051,1.1801 -0.9414,0 -1.7116,-0.3895 -2.3108,-1.1682 -0.5993,-0.7787 -0.8989,-1.7815 -0.8989,-3.0087 v -0.1417 c 0,-1.2348 0.3013,-2.2436 0.904,-3.0263 0.6026,-0.7826 1.3745,-1.1741 2.3156,-1.1741 0.9346,0 1.7011,0.3895 2.3003,1.1682 0.5992,0.7787 0.8989,1.7816 0.8989,3.0087 z m -1.5132,0.0235 v -0.1417 c 0,-0.8022 -0.1573,-1.4414 -0.4725,-1.9171 -0.3146,-0.4759 -0.7225,-0.714 -1.2234,-0.714 -0.5083,0 -0.9159,0.2341 -1.224,0.7021 -0.3082,0.468 -0.4621,1.1033 -0.4621,1.9055 v 0.1417 c 0,0.8022 0.1573,1.4414 0.4723,1.9174 0.3146,0.4756 0.7228,0.7137 1.2237,0.7137 0.5077,0 0.9156,-0.2341 1.224,-0.7021 0.3081,-0.468 0.462,-1.1033 0.462,-1.9055 z m 2.4767,4.0471 v -8.2594 h 4.6817 v 1.5577 h -3.2193 v 1.451 h 1.3203 c 0.7314,0 1.3119,0.2322 1.7416,0.6962 0.4301,0.4641 0.6449,1.1013 0.6449,1.9114 0,0.8416 -0.2282,1.4928 -0.6854,1.9528 -0.4569,0.4601 -1.0446,0.6903 -1.762,0.6903 z m 1.4624,-1.5339 h 1.3101 c 0.2912,0 0.5196,-0.0983 0.6857,-0.2951 0.1659,-0.1964 0.2486,-0.4561 0.2486,-0.7786 0,-0.3617 -0.0827,-0.6353 -0.2486,-0.8201 -0.1661,-0.1848 -0.3979,-0.2772 -0.6959,-0.2772 h -1.2999 z m 4.2437,0.106 c 0.1556,0 0.2843,-0.0275 0.3858,-0.0824 0.1018,-0.055 0.2032,-0.1809 0.3047,-0.3776 0.1015,-0.1967 0.1812,-0.476 0.2387,-0.8377 0.0575,-0.3619 0.1032,-0.8574 0.1372,-1.4867 0.0337,-0.6293 0.0507,-1.4001 0.0507,-2.3125 v -1.7346 h 4.4791 v 8.2594 h -1.4627 v -6.7017 h -1.635 v 0.9555 c 0,1.5812 -0.0729,2.7944 -0.2186,3.64 -0.1454,0.8456 -0.3637,1.4219 -0.6548,1.7286 -0.2914,0.3067 -0.7041,0.46 -1.2393,0.46 -0.1962,0 -0.4569,-0.0354 -0.7821,-0.106 l 0.1525,-1.4394 c 0.0675,0.0235 0.1488,0.0351 0.2438,0.0351 z m 12.7548,1.4279 h -1.5134 l -0.5284,-1.7935 h -2.4372 l -0.5284,1.7935 h -1.4723 l 2.539,-8.3064 h 1.4014 z m -2.4886,-3.3038 -0.7718,-2.6901 -0.7821,2.6901 z m 8.3773,2.3128 c -0.3181,0.3696 -0.6585,0.6468 -1.0205,0.8316 -0.3623,0.1849 -0.7974,0.2773 -1.3051,0.2773 -0.9141,0 -1.6673,-0.3853 -2.2597,-1.1563 -0.5928,-0.7707 -0.889,-1.7815 -0.889,-3.0322 v -0.1063 c 0,-1.2506 0.3013,-2.2635 0.904,-3.0382 0.6026,-0.7747 1.3745,-1.1622 2.3156,-1.1622 0.8736,0 1.6081,0.3147 2.2039,0.944 l -0.6905,1.3804 c -0.4943,-0.4878 -0.9884,-0.7316 -1.4828,-0.7316 -0.508,0 -0.9227,0.2322 -1.2444,0.6962 -0.3214,0.464 -0.4822,1.0933 -0.4822,1.8879 v 0.1179 c 0,0.8101 0.1591,1.4474 0.4771,1.9114 0.3186,0.464 0.7381,0.6962 1.2597,0.6962 0.5077,0 1.012,-0.2517 1.5131,-0.7552 z m 5.4422,-5.6872 h -1.7671 v 6.6782 h -1.4726 v -6.6782 h -1.7776 v -1.5812 h 5.0173 z m 3.2281,6.6782 h -2.4375 v -8.2594 h 1.4627 v 2.7494 h 1.036 c 0.7716,0 1.3811,0.2438 1.8281,0.7313 0.4467,0.4879 0.6701,1.1563 0.6701,2.0058 0,0.881 -0.2404,1.5636 -0.7208,2.0472 -0.4808,0.4839 -1.0937,0.7257 -1.8386,0.7257 z m -0.9748,-1.5339 h 1.0258 c 0.3249,0 0.5803,-0.1083 0.7668,-0.3245 0.1862,-0.2163 0.2792,-0.5094 0.2792,-0.8791 0,-0.4011 -0.093,-0.7058 -0.2792,-0.9144 -0.1865,-0.2084 -0.4453,-0.3127 -0.7773,-0.3127 h -1.0153 z"
     style="fill:#ffffff;fill-rule:evenodd"
     id="path959"
     inkscape:connector-curvature="0" />
</svg>
